<svg xmlns="http://www.w3.org/2000/svg" width="667" height="667" viewBox="0 0 667 667">
  <g id="_5c5OZB" data-name="5c5OZB" transform="translate(632 -85)">
    <g id="Group_218" data-name="Group 218" transform="translate(-632 85)">
      <path id="Path_492" data-name="Path 492" d="M-246.244,85c5.407,3.846,5.191,9,4.69,15.062-1.682,20.369-2.572,40.8-3.818,61.207-.239,3.9-.723,7.777-1.183,12.578-7.269.866-14.287,1.779-21.323,2.52-9.547,1.006-19.124,1.745-28.656,2.862-5.475.642-10.264.107-13.94-4.6-1.933-2.478-3.437-5.1-2.183-8.117,1.273-3.056,4.253-3.919,7.374-3.888,9.083.095,18.168.365,27.251.348,4.854-.009,9.707-.468,14.466-.719,0-8.306.079-15.858-.018-23.407-.141-11.059-.093-22.134-.71-33.171-.548-9.824,3.3-16.583,12.122-20.673Z" transform="translate(785.772 -85)" fill="#a2b1ec"/>
      <path id="Path_493" data-name="Path 493" d="M-344.19,547.865c-.72-6.5-6.03-10.573-8.637-15.964,3.061-4.871,5.886-9.639,9.036-14.182.8-1.158,2.575-1.762,4.015-2.332,4.379-1.725,7.507-5.277,12.652-6.339,9.471-1.957,17.664.113,26.449,5.17,1.058,4.144,2.337,9.341,3.729,14.508a29.96,29.96,0,0,0,1.931,5.392c2.81,5.727,2.739,6.126-2.21,11.13-.6.611-.691,1.731-1.017,2.616Z" transform="translate(766.623 119.134)" fill="#a2b1ec"/>
      <path id="Path_494" data-name="Path 494" d="M-632,388.746q8.182-9.467,16.362-18.934c2.077-2.407,4.135-4.828,6.8-7.948,6.488,3.686,12.869,7.254,19.193,10.919,8.744,5.068,17.364,10.352,26.2,15.259,4.626,2.572,6.688,6.328,6.889,11.375.125,3.136-.566,6.5-3.617,7.416a9.881,9.881,0,0,1-7.39-1.43c-8.345-5.692-16.353-11.871-24.546-17.79-3.151-2.275-6.465-4.327-10.27-6.855-2.475,3.556-4.724,6.714-6.9,9.923q-11.383,16.8-22.725,33.638Z" transform="translate(632 48.51)" fill="#a2b1ec"/>
      <path id="Path_495" data-name="Path 495" d="M-303.838,85c.36,1.143,1.307,2.49.99,3.4-3.012,8.592-5.935,17.174-4.737,25.708l-17.647,6.7a17.62,17.62,0,0,0-3.433-.7c-3.934-.291-8.29.593-11.707-.834-3.32-1.389-6.01-4.208-9.68-5.761-2.9-1.229-4.847-5.3-6.651-8.441-4.59-7.986-3.894-12.589,2.469-20.075Z" transform="translate(763.327 -85)" fill="#a2b1ec"/>
      <path id="Path_496" data-name="Path 496" d="M-161.571,252.061c-11.244-4.868-22.893-8.464-35.464-11.839-3.033,9.84-5.938,19.161-8.767,28.5-1.355,4.472-2.321,9.076-3.9,13.462-2.008,5.582-5.662,6.384-10.192,2.6-4.4-3.673-5.674-9.419-3.279-15.414,2.649-6.63,5.459-13.193,8.1-19.823,3.716-9.3,7.346-18.642,11.188-28.414l42.31,8.69Z" transform="translate(828.57 -19.352)" fill="#a2b1ec"/>
      <path id="Path_497" data-name="Path 497" d="M-632,229c8.4,11.836,16.81,23.67,25.7,36.187,5.363-3.858,10.543-7.4,15.52-11.216,5.674-4.346,11.152-8.947,16.746-13.4a23.056,23.056,0,0,1,4.232-2.929c3.795-1.816,6.643-.559,8.225,3.4a12.5,12.5,0,0,1-5.032,14.884c-4.285,2.9-8.75,5.527-13.121,8.3-10.352,6.568-20.695,13.15-31.629,20.1-3.328-3.488-6.308-6.66-9.344-9.778-3.74-3.843-7.528-7.639-11.295-11.456Z" transform="translate(632 -15.56)" fill="#a2b1ec"/>
      <path id="Path_498" data-name="Path 498" d="M-162.429,403.34l-37.4,9.016c-3.047-6.83-6.031-13.472-8.979-20.132q-4.329-9.783-8.594-19.595c-1.472-3.379-2.957-6.758-4.328-10.18-2.145-5.354.012-9.679,3.719-13.325,3.611-3.551,8.155-2.637,10,2.149,2.121,5.5,3.657,11.225,5.5,16.834,2.68,8.149,5.41,16.284,8.415,25.309,5.262-1.86,9.78-3.5,14.33-5.053,5.766-1.964,11.558-3.854,17.341-5.775Z" transform="translate(829.429 41.326)" fill="#a2b1ec"/>
      <path id="Path_499" data-name="Path 499" d="M-400.06,85c-3.463,4.734-6.926,9.468-10.571,14.45,12.377,11.523,27.944,18.328,39.881,29.234-4.826,9.965-12.759,11.607-20.348,5.235-11.644-9.777-23.2-19.66-34.8-29.484-1.484-1.257-3.034-2.434-4.715-3.778L-422.293,85Z" transform="translate(729.113 -85)" fill="#a2b1ec"/>
      <path id="Path_500" data-name="Path 500" d="M-414.571,552.407c-2.308-4.516-4.614-9.033-7.466-14.613,4.249-4.214,8.733-8.988,13.571-13.374,6.357-5.764,13-11.213,19.5-16.816,2.423-2.088,4.653-4.436,7.235-6.3a11.584,11.584,0,0,1,12.572-1.015c5.853,2.861,6.5,7.378,1.364,11.349-5.452,4.214-11.179,8.069-16.737,12.145-5.882,4.313-11.708,8.7-18.234,13.562l11.907,15.061Z" transform="translate(733.249 114.593)" fill="#a2b1ec"/>
      <path id="Path_501" data-name="Path 501" d="M-175.4,341.858l-6.963.775c-2.382-2.958-4.684-5.757-6.918-8.609-5.367-6.857-6.7-14.4-6.371-23.225.4-10.662,7.3-16.392,13.936-23.831l6.316,3.012Z" transform="translate(842.396 12.393)" fill="#a2b1ec"/>
      <path id="Path_502" data-name="Path 502" d="M-632,512.281c5.621-.32,11.244-.915,16.862-.86a31.356,31.356,0,0,1,10.628,1.733c5.489,2.08,8.484,6.586,7.92,11.167a12.018,12.018,0,0,1-8.493,10.165,44.877,44.877,0,0,1-12.221,1.811c-4.884.219-9.794-.173-14.695-.3Z" transform="translate(632 120.628)" fill="#a2b1ec"/>
      <path id="Path_503" data-name="Path 503" d="M-632,101.408c5.386-2.085,10.641-1.405,15.8.808a13.091,13.091,0,0,1,7.887,12.243c-.2,5.533-3.6,8.68-8.444,9.882-4.963,1.232-10.152,1.547-15.243,2.265Z" transform="translate(632 -77.693)" fill="#a2b1ec"/>
      <path id="Path_504" data-name="Path 504" d="M-502.408,506.183l-12.418-34.72c-.828-2.32-1.845-4.593-2.44-6.971-1.343-5.382,1.539-8.646,7.045-8.2a12.428,12.428,0,0,1,11.075,9.46c4.37,16.888,8.546,33.826,12.969,51.423-2.683,1.324-4.991,2.566-7.377,3.623q-31.064,13.769-62.151,27.479c-.9.4-1.779.851-2.7,1.192-7.45,2.752-13.7-1.891-12.583-9.752,1.129-7.921,5.68-13.588,13.383-16.131,11.926-3.94,23.945-7.6,35.927-11.372C-515.588,510.294-509.493,508.4-502.408,506.183Z" transform="translate(661.359 94.024)" fill="#a2b1ec"/>
      <path id="Path_505" data-name="Path 505" d="M-256.44,483.31c-10.29,0-20.283-.076-30.276.036-4.178.046-8.349.544-12.528.726-2.825.125-5.936-.242-6.574-3.424a12.323,12.323,0,0,1,.907-7.573,10.813,10.813,0,0,1,10.352-5.914c3.932.1,7.859.461,11.791.624,5.152.215,10.319.182,15.458.556,8.793.637,17.567,1.509,26.926,2.333.784,7.19,1.553,14.2,2.312,21.214q2.817,26.035,5.622,52.073c.184,1.715.418,3.431.455,5.151.169,7.973-5.3,11.908-12.657,9.145-6.648-2.5-11.864-10.8-11.745-18,.285-17.407.4-34.819.531-52.229A38.773,38.773,0,0,0-256.44,483.31Z" transform="translate(789.183 99.284)" fill="#a2b1ec"/>
      <path id="Path_506" data-name="Path 506" d="M-493.039,136.71c-3.8,17.954-7.442,35.289-11.17,52.6-1.192,5.535-5.286,8.222-10.395,9.3-5.371,1.138-8.582-2.148-7.693-7.574a32.853,32.853,0,0,1,1.447-4.968c2.878-8.671,5.847-17.314,8.646-26.01,1.118-3.476,1.876-7.066,2.941-11.148-3.176-1.021-5.916-1.958-8.689-2.785-16.524-4.927-33.079-9.747-49.57-14.776-6.554-2-10.027-6.992-11.148-13.509-1.3-7.577,4.1-13.875,12.615-10.37,9.575,3.943,19.2,7.77,28.813,11.615C-522.833,124.852-508.413,130.584-493.039,136.71Z" transform="translate(657.624 -74.641)" fill="#a2b1ec"/>
      <path id="Path_507" data-name="Path 507" d="M-614.405,166.917c4.06-.909,8.344-1.977,12.672-2.806,5.342-1.024,10.427-3.176,15.848-3.722,2.161-.218,5.048-.419,6.5.746,5.935,4.774,12.724,7.765,19.6,10.691a5.237,5.237,0,0,1,1.143.96c.366,5.219,1.441,10.441.875,15.477a32,32,0,0,1-4.513,12.958c-3.452,5.529-8.051,10.6-14.231,13.1-4.367,1.762-9.356,1.988-13.1,2.712-5.831-4.381-10.9-8.182-15.961-12-3.575-2.7-6.24-5.994-6.627-10.659C-612.93,185.651-613.606,176.925-614.405,166.917Z" transform="translate(640.485 -48.726)" fill="#a2b1ec"/>
      <path id="Path_508" data-name="Path 508" d="M-554.032,472.6c-3.839,1.921-8.413,4.058-12.815,6.5-1.427.792-2.487,2.321-3.579,3.628-2.083,2.493-5.017,3-7.937,3.422-.378.055-.955-1.273-1.765-2.422l-1.272,2.729-4.921-3.562c-.145.247-.593,1.015-.577.986l-22.183-4.5c.577-3.8,1.235-7.524,1.685-11.274.459-3.812-1.936-8.066,1.816-11.355-4.263-2.859,2.97-7.607-2.975-9.738,9.32-5.686,16.545-11.635,21.741-19.282,11.074,1.848,20.978,5.317,29,15.98C-553.121,450.9-550.835,460.723-554.032,472.6Z" transform="translate(643.052 80.27)" fill="#a2b1ec"/>
      <path id="Path_509" data-name="Path 509" d="M-244.9,427.926A33.989,33.989,0,0,0-245.981,423c-4.35-11.515-8.787-23-13.2-34.491-.089-.23-.209-.448-.3-.677-1.865-4.875-.757-9.5,2.631-11.014,3.424-1.524,7.642.974,9.311,6.159,2.263,7.029,4.033,14.215,6.068,21.317,2.979,10.4,6,20.794,9.242,31.988-2.877.486-5.416,1.122-7.988,1.313-15.231,1.135-30.464,2.241-45.707,3.2-7.221.455-10.928-1.894-11.167-6.593-.207-4.078,3.391-6.58,10.558-6.514,13.048.119,26.092.593,39.138.879A11.009,11.009,0,0,0-244.9,427.926Z" transform="translate(793.499 55.507)" fill="#a2b1ec"/>
      <path id="Path_510" data-name="Path 510" d="M-457.445,147.065c-3.622,13.548-7,26.112-10.334,38.69-1.22,4.6-2.517,9.092-7.759,10.611-6.414-3-7.579-5.563-5.189-12.2,4.42-12.27,8.981-24.489,13.49-36.726,1.694-4.6,3.406-9.2,5.345-14.429,9.947,6.08,19.545,11.956,29.151,17.815,5.466,3.334,11.041,6.5,16.377,10.026a21.07,21.07,0,0,1,5.671,5.561c1.656,2.432,1.242,5.25-.775,7.515-2.145,2.407-4.8,2.214-7.422.916a28.012,28.012,0,0,1-4.386-2.726c-10.223-7.7-20.407-15.446-30.624-23.151A33.815,33.815,0,0,0-457.445,147.065Z" transform="translate(704.393 -61.847)" fill="#a2b1ec"/>
      <path id="Path_511" data-name="Path 511" d="M-539.171,292.295c-.127,5.117-3.488,7.4-6.686,9.679-10.224,7.288-20.517,14.48-30.774,21.722-.783.553-1.5,1.207-2.914,2.361,4.472,3.156,8.52,6.156,12.71,8.938,7.384,4.9,14.9,9.612,22.263,14.539,1.794,1.2,3.778,2.659,4.682,4.49.849,1.724,1.184,4.586.283,6.043-.92,1.487-3.58,2.435-5.552,2.576a8.722,8.722,0,0,1-5.422-1.9c-14.172-11.053-28.229-22.25-42.3-33.429a7.04,7.04,0,0,1-1.005-1.581c13.786-11.767,27.532-23.671,41.49-35.321C-547.179,286.061-544.369,286.674-539.171,292.295Z" transform="translate(650.379 12.677)" fill="#a2b1ec"/>
      <path id="Path_512" data-name="Path 512" d="M-237.038,198.5c-.59,2.831-1.024,5.232-1.6,7.6q-5.294,21.9-10.645,43.789c-2.005,8.185-4.841,9.866-13.516,7.124.173-2.978-.293-6.457.668-9.483,3.952-12.439,8.342-24.737,12.549-37.094.307-.9.428-1.865.774-3.424-6.623,0-12.886-.172-19.134.044-7.38.256-14.745.9-22.122,1.261a22.772,22.772,0,0,1-5.873-.388c-2.821-.608-5.068-2.158-5.167-5.394a6,6,0,0,1,4.386-6.171,18.91,18.91,0,0,1,6.52-.917c16.728.621,33.452,1.371,50.175,2.115A16.158,16.158,0,0,1-237.038,198.5Z" transform="translate(791.565 -31.744)" fill="#a2b1ec"/>
      <path id="Path_513" data-name="Path 513" d="M-449.573,495.33c3.615-2.757,6.755-5.044,9.775-7.478,7.871-6.339,15.689-12.744,23.527-19.124.191-.156.363-.336.56-.483,3.735-2.766,8.524-2.96,10.8-.442,2.465,2.73,1.8,6.981-2.423,10.2-5.475,4.177-11.382,7.788-17.1,11.644-9.587,6.465-19.171,12.934-29.364,19.811a62.776,62.776,0,0,1-3.187-5.83c-5.75-13.893-11.483-27.795-17.056-41.759a32.079,32.079,0,0,1-2.035-8.533c-.31-3.036,1.553-5.2,4.355-6.16,3.037-1.038,5.348.522,6.854,3.007a27.68,27.68,0,0,1,2.628,6.065c3.745,11.993,7.39,24.018,11.094,36.024A27.041,27.041,0,0,0-449.573,495.33Z" transform="translate(707.173 89.495)" fill="#a2b1ec"/>
      <path id="Path_514" data-name="Path 514" d="M-249.662,319.157c6.1-11.3,12.35-21.928,17.628-33.018,2.581-5.422,7.112-6.231,12.839-2.8,5.059,3.033,5.53,7.294,1.639,12.372-5.818,7.593-11.658,15.171-17.748,23.091,4.218,5.191,8.214,10.134,12.243,15.051,2.026,2.471,4.174,4.845,6.163,7.346,5.007,6.3,2.589,13.3-5.174,14.966-3.132.673-5.985.1-7.725-2.871C-236.509,341.853-243.146,330.369-249.662,319.157Z" transform="translate(816.371 9.651)" fill="#a2b1ec"/>
      <path id="Path_515" data-name="Path 515" d="M-529.026,418.9l-32.664-8.512c-3.586-5.121-2.668-9.328.409-13.463,2.026-2.724,4.61-3.726,7.739-2.37,11.724,5.084,23.41,10.258,35.1,15.431.409.181.668.7,1.3,1.386,1.644,12,3.378,24.411,5.028,36.833.741,5.586-1.737,8.418-7.754,9.12-5.563.649-9.461-2.148-9.631-7.5-.166-5.149.362-10.318.458-15.48C-528.955,429.449-529.026,424.549-529.026,418.9Z" transform="translate(664.787 63.984)" fill="#a2b1ec"/>
      <path id="Path_516" data-name="Path 516" d="M-351.786,173.12c-9.282-9.578-18.067-18.547-26.73-27.63-3.76-3.941-3.148-8.01,1.49-11.962,4.448-3.79,8.932-3.634,12.064.753,4.433,6.206,8.6,12.6,12.934,18.882,1.378,2,2.916,3.888,4.619,6.145,7.819-3.07,15.354-6.022,22.884-8.994,1.146-.452,2.238-1.042,3.39-1.476,7.854-2.959,12.966.814,12.772,9.294-.077,3.384-1.378,5.785-4.765,6.54C-325.853,167.5-338.6,170.246-351.786,173.12Z" transform="translate(753.052 -62.9)" fill="#a2b1ec"/>
      <path id="Path_517" data-name="Path 517" d="M-532.724,226.515c-.412-6.723-.825-13.3-1.217-19.881-.19-3.191-.4-6.382-.5-9.577-.182-5.784,2.585-8.658,8.214-8.634,6.19.027,9.412,3.087,8.886,8.8-1.153,12.47-2.454,24.927-3.719,37.614-1.8,1.055-3.408,2.145-5.134,2.988-9.5,4.645-19.161,8.969-28.487,13.93-5.769,3.07-9.783-.1-11.787-4.731-2.379-5.5-.676-9.387,5.3-11.363,7.931-2.621,15.981-4.876,23.966-7.336C-535.83,227.9-534.534,227.254-532.724,226.515Z" transform="translate(663.104 -35.127)" fill="#a2b1ec"/>
      <path id="Path_518" data-name="Path 518" d="M-341.727,472.1c-5.459,8.713-10.436,16.9-15.661,24.921-4.144,6.363-10.19,6.256-14.871.058-2.186-2.895-2.837-5.855-.332-8.735,8.551-9.827,17.207-19.564,26.12-29.671l40.975,7.438c3.363,2.791,3.369,5.993,2.833,9.227-1.048,6.326-5.043,8.855-11.17,6.774C-322.9,479.03-331.867,475.655-341.727,472.1Z" transform="translate(756.315 95.193)" fill="#a2b1ec"/>
      <path id="Path_519" data-name="Path 519" d="M-500.8,277.757c-10.106,3.434-19.39,6.759-28.788,9.723-6.039,1.9-8.219.719-12.31-6.082,1.444-1.221,2.806-3.258,4.59-3.743,12.823-3.488,25.733-6.658,39.116-10.057a65.687,65.687,0,0,1,4.3,7.082c2.515,5.628,4.805,11.36,7.087,17.089,2.112,5.3,1.639,6.354-4.258,9.975C-496.4,294.768-496.207,285.433-500.8,277.757Z" transform="translate(675.447 3.053)" fill="#a2b1ec"/>
      <path id="Path_520" data-name="Path 520" d="M-394.8,429.162c-7.476-5.318-14.235-10.128-20.985-14.93,3.671-5.026,6.061-5.905,9.794-3.05,7.2,5.5,14.126,11.358,21.634,17.447-7.592,13.473-14.806,26.443-22.38,38.475-4.427.047-6.876-1.513-7.1-4.469-.23-2.993-.006-6.543,1.432-9.034,2.809-4.871,6.63-9.154,9.978-13.722C-399.98,436.532-397.616,433.121-394.8,429.162Z" transform="translate(736.262 71.513)" fill="#a2b1ec"/>
      <path id="Path_521" data-name="Path 521" d="M-499.653,357.994c2.809-8.564,5.45-16.623,8.115-24.753,6.1,2.807,7.393,4.616,5.753,9.042-3.148,8.486-6.714,16.816-10.041,25.045-17.71-2.185-39.47-7.417-43.954-10.488.657-7.082,5.269-10.236,11.981-8.074C-518.676,351.7-509.583,354.733-499.653,357.994Z" transform="translate(676.47 34.707)" fill="#a2b1ec"/>
      <path id="Path_522" data-name="Path 522" d="M-419.966,225.093c3.8-2.816,7.118-5.238,10.395-7.711,3.3-2.493,6.569-5.038,10.408-7.986-4.577-5.775-8.855-11.066-13.009-16.453a79.874,79.874,0,0,1-6.356-9.027c-2.969-5.211-1.856-8.552,3.655-12.233,5.077,1.461,6.342,6.538,8.846,10.211,5.806,8.518,11,17.453,16.711,26.647a26.872,26.872,0,0,1-3.291,4.438c-5.452,4.951-10.954,9.858-16.636,14.539C-413.076,230.676-414.846,230.241-419.966,225.093Z" transform="translate(734.167 -43.199)" fill="#a2b1ec"/>
      <path id="Path_523" data-name="Path 523" d="M-290.48,342.91l-20.051,14.88c-4.633-4.711-4.611-7.218.369-10.531,7.309-4.86,14.816-9.422,22.1-14.02,10.476,8.973,28.187,29.791,29.6,34.656-5.4,4.986-9.992,4.817-14.668-1.164-5.146-6.58-9.854-13.5-14.753-20.274C-288.583,345.5-289.288,344.539-290.48,342.91Z" transform="translate(785.369 34.706)" fill="#a2b1ec"/>
      <path id="Path_524" data-name="Path 524" d="M-312.941,270.779c3.842,2.776,7.156,5.2,10.506,7.585s6.735,4.712,10.53,7.362c2.923-4.287,5.351-7.942,7.875-11.529,3.391-4.82,6.67-9.738,10.34-14.339,4.23-5.306,8.652-5.137,13.839.92-8.468,11.638-18.433,22.373-27.978,34.405a64.336,64.336,0,0,1-7.3-3.122c-5.523-3.191-10.909-6.618-16.344-9.959C-316.089,279.265-316.488,277.364-312.941,270.779Z" transform="translate(784.716 -2.518)" fill="#a2b1ec"/>
      <path id="Path_525" data-name="Path 525" d="M-480,443.543c-2.025-4.7-1.214-31.064,1.238-45.183,1.381-.531,2.914-1.507,4.528-1.67,7.339-.74,14.7-1.282,22.055-1.829,4.322-.322,6.92,1.669,7.918,6.067-3.734,4.156-8.447,1.841-12.569,2.214-4.306.39-8.677.087-13.1.087,0,7.854.019,14.671-.007,21.486a107.426,107.426,0,0,1-.227,11.041C-470.771,441.366-473.1,443.107-480,443.543Z" transform="translate(704.745 64.405)" fill="#a2b1ec"/>
      <path id="Path_526" data-name="Path 526" d="M-347.09,415.865c2.038-9.114,3.84-18,6.08-26.772.866-3.39,3.645-5.029,7.47-4.841,3.471,4.65-.341,8.444-1.257,12.421-.984,4.276-2.416,8.447-3.947,13.669,6.042,1.708,11.64,3.231,17.2,4.884a132.7,132.7,0,0,1,13.341,4.318c5.751,2.4,6.806,6.507,3.694,12.319C-309.55,431.852-336.688,421.77-347.09,415.865Z" transform="translate(769.39 59.298)" fill="#a2b1ec"/>
      <path id="Path_527" data-name="Path 527" d="M-342.146,223.227c2.656,8.2,5.075,15.627,7.439,23.071.124.39-.208.926-.332,1.395-5.209,2.143-7.491,1.261-9.025-4.131-2.4-8.461-4.494-17.011-6.846-26.019,13.934-6.351,27.319-12.777,41.028-17.908,4.81,6.336,3.393,11.689-3.551,14.225-7.841,2.865-15.885,5.171-23.84,7.728C-338.658,222.032-340.031,222.514-342.146,223.227Z" transform="translate(767.548 -29.721)" fill="#a2b1ec"/>
      <path id="Path_528" data-name="Path 528" d="M-514.262,330.582a3.194,3.194,0,0,0-.726-.114c-10.832.79-19.469-2.589-24.249-13.4,4.407-9.891,12.273-15.292,24.648-14.1C-504.718,313.194-504.39,321.383-514.262,330.582Z" transform="translate(676.732 20.032)" fill="#a2b1ec"/>
      <path id="Path_529" data-name="Path 529" d="M-303.793,258.617c-3.649-1.795-7.416-3.35-10.871-5.423-4.091-2.455-5.183-7.012-6.086-11.2-.808-3.746.243-7.162,4.376-9.181,3.212-1.57,6.019-3.969,8.552-5.692,5.751,1.457,10.851,2.75,15.864,4.021v16.645Z" transform="translate(781.97 -16.465)" fill="#a2b1ec"/>
      <path id="Path_530" data-name="Path 530" d="M-456.2,198.67c2.718-4.577,5.53-9.313,8.459-14.247,4.882,1.866,9.626,3.483,14.17,5.539,1.349.609,2.419,2.317,3.126,3.76,1.656,3.379,3.015,6.9,4.616,10.653-8.566,13.049-14.807,15.059-26.438,8.2C-453.534,208.1-454.786,203.673-456.2,198.67Z" transform="translate(716.774 -37.056)" fill="#a2b1ec"/>
      <path id="Path_531" data-name="Path 531" d="M-300.7,368.6c3.591,3.049,6.766,5.747,10.2,8.662.618,5.458,1.272,11.249,1.943,17.192L-305.4,398.4l-12.036-7.119C-319.241,377.127-314.949,371.085-300.7,368.6Z" transform="translate(783.502 51.756)" fill="#a2b1ec"/>
      <path id="Path_532" data-name="Path 532" d="M-421.946,427.063c-1.285,3.708-2.254,7.51-3.946,10.957-.812,1.654-2.821,2.976-4.582,3.857-3.873,1.933-7.933,3.489-12.344,5.383l-8.761-13.911c1.082-5.161,2.068-9.864,3.068-14.631C-435.749,413.045-429.609,414.969-421.946,427.063Z" transform="translate(719.003 74.453)" fill="#a2b1ec"/>
      <path id="Path_533" data-name="Path 533" d="M-481.875,240.974c-1.479-15.762-3.722-30.218-4.161-44.613,7.559-2.22,11.89.529,12.212,7.485.363,7.841.108,15.712.12,23.569q0,3.222,0,6.446c8.97,2.217,17.622-.959,25.894,1.226-.658,5.987-1.829,7.647-6.242,7.5C-463.062,242.292-472.06,241.57-481.875,240.974Z" transform="translate(702.387 -31.662)" fill="#a2b1ec"/>
      <path id="Path_534" data-name="Path 534" d="M-472,348.266c.593,9.391-5.133,17.094-6.866,26.025,8.833,2.216,18.274-2.483,26.939,1.41-.322,4.878-3.2,4.719-5.932,4.724-8.837.015-17.674.006-27.094.006a46,46,0,0,1,.5-5.833c1.66-7.2,3.354-14.388,5.211-21.537C-478.067,348.533-477.874,348.528-472,348.266Z" transform="translate(702.911 41.952)" fill="#a2b1ec"/>
      <path id="Path_535" data-name="Path 535" d="M-477.18,286.454c-5.428-9.839-6.243-20.822-10.644-31.193a66.829,66.829,0,0,1,6.94-1.4c6.875-.617,13.759-1.121,20.647-1.555,3.362-.212,6.571.042,6.27,5.487-8.508,3.154-17.458.357-26.564,1.542.984,7.079,4.266,13.107,6.691,19.389C-472.664,281.775-471.838,284.409-477.18,286.454Z" transform="translate(701.525 -4.345)" fill="#a2b1ec"/>
      <path id="Path_536" data-name="Path 536" d="M-327.458,295.384c2.152.467,4.764.31,6.375,1.5,7.284,5.4,14.284,11.186,22.011,17.329-7.713,6.544-14.9,12.787-22.267,18.806-2.48,2.025-5.008,1.833-6.784-2.3,5.447-6.827,13.739-10.448,20.882-16.18-6.295-6.617-15.833-9.365-21.583-16.487Q-328.14,296.721-327.458,295.384Z" transform="translate(778.197 16.452)" fill="#a2b1ec"/>
      <path id="Path_537" data-name="Path 537" d="M-391.272,390.905c8.755,2.813,14.72,10.054,22.4,14.787,2.911-8.321,5.686-16.333,8.581-24.3.135-.372,1.327-.36,1.945-.507,3.587,1.8,2.418,4.556,1.528,7.081-2.862,8.118-5.834,16.2-8.889,24.637a9.231,9.231,0,0,1-2.862-.557c-6.959-4.229-13.85-8.567-20.793-12.823C-392.419,397.351-394.447,395.27-391.272,390.905Z" transform="translate(747.312 57.682)" fill="#a2b1ec"/>
      <path id="Path_538" data-name="Path 538" d="M-394.347,239.317c-3.237-4.248-1.205-6.243,1.414-8.01,7.316-4.939,14.656-9.842,22.8-15.308,1.315,2.95,2.527,5.493,3.594,8.1,2.42,5.917,4.814,11.846,7.131,17.8,1.19,3.059,1.451,5.871-3.646,6.848-5.177-7.092-5.729-16.171-9.125-24.8C-380.386,227.6-385.574,235.8-394.347,239.317Z" transform="translate(745.798 -21.83)" fill="#a2b1ec"/>
      <path id="Path_539" data-name="Path 539" d="M-340.05,267.961q-1.572-11.526-2.97-21.774c2.988-2.938,5.483-3.749,8.861-.59v17.886l18.418,5.041c-.837,3.071-1.518,5.569-2.44,8.953Z" transform="translate(771.352 -8.531)" fill="#a2b1ec"/>
      <path id="Path_540" data-name="Path 540" d="M-483.187,318.119-494.4,338.766c-2.872-1.515-5.044-2.659-8.256-4.355l11.92-16.014L-502.96,303.14c2.757-1.893,4.869-3.344,7.524-5.169Z" transform="translate(694.226 17.699)" fill="#a2b1ec"/>
      <path id="Path_541" data-name="Path 541" d="M-415.276,411.023-426.031,396.3c-4.2,1.616-8.078,3.059-11.917,4.6-2.271.913-4.86,2.693-6.689.176-1.2-1.65-1.033-4.291-1.543-6.8,7.859-1.8,14.776-3.381,22.426-5.133,5.025,5.29,10.208,10.745,15.184,15.984C-410.564,409.787-410.564,409.787-415.276,411.023Z" transform="translate(721.606 61.662)" fill="#a2b1ec"/>
      <path id="Path_542" data-name="Path 542" d="M-338.521,360.509l21.013-9.947c1.285,2.7,2.394,5.023,3.9,8.186-6.834,2.229-12.575,4.1-18.75,6.113.282,6.105.55,11.93.867,18.835l-9.039,1.073C-339.8,375.96-339.179,368.466-338.521,360.509Z" transform="translate(772.553 43.06)" fill="#a2b1ec"/>
      <path id="Path_543" data-name="Path 543" d="M-418.381,216.1l7.469,5.508c-5.554,6.291-10.381,11.761-15.6,17.677L-449.8,235.2c.814-3.31,1.426-5.8,2.216-9.009l18.633,6.117Z" transform="translate(719.862 -21.782)" fill="#a2b1ec"/>
      <path id="Path_544" data-name="Path 544" d="M-363.178,273.065c-6.225-.946-11.987,2.244-17.481-.666l-.129-2.133c1.958-.276,3.909-.611,5.873-.809,2.14-.218,4.292-.31,6.353-.451,2.53-6.731-1.613-13.819,2.606-19.74.445-.623,1.663-.692,3.431-1.365C-360.953,256.468-362.949,264.254-363.178,273.065Z" transform="translate(753.14 -6.446)" fill="#a2b1ec"/>
      <path id="Path_545" data-name="Path 545" d="M-400.809,236.907c4.648,4.779,2.123,7.783-.024,10.807-2.128,3-4.29,5.979-6.823,9.505l10.515,8.769c-1.58.892-2.776,1.922-3.1,1.7-4.378-3.027-8.635-6.228-13.119-9.531A142.36,142.36,0,0,1-400.809,236.907Z" transform="translate(737.431 -11.747)" fill="#a2b1ec"/>
      <path id="Path_546" data-name="Path 546" d="M-410.99,372.858c7.942-9.322,10.963-11.149,15.823-9.119l-10.258,8.342c3.083,4.248,6.2,8.252,8.985,12.477,2.315,3.516,2.139,3.631-2.023,7.55Z" transform="translate(738.576 49.055)" fill="#a2b1ec"/>
      <path id="Path_547" data-name="Path 547" d="M-429.367,366.777c-7.667,3.514-14.2,7.282-21.829,9.491-1.663-4.662.295-6.775,3.66-7.957,4.164-1.463,8.41-2.683,13.334-4.233-1.121-4.5-2.191-8.8-3.262-13.1l1.866-.585C-430.843,354.475-430.923,360.615-429.367,366.777Z" transform="translate(718.897 42.98)" fill="#a2b1ec"/>
      <path id="Path_548" data-name="Path 548" d="M-446.677,291.085c-.163,2.161.179,3.8-.4,4.241-4.2,3.191-8.576,6.139-13.017,9.248l-15.648-17.689c3.418-4.334,6.065-2.407,8.149.068,2.987,3.544,5.564,7.43,8.744,11.751Z" transform="translate(707.353 11.113)" fill="#a2b1ec"/>
      <path id="Path_549" data-name="Path 549" d="M-326.883,331.991c-7.648,2.005-15.108,3.959-23.41,6.135-1.789-6.09-6.517-10.78-4.928-17.232l1.78-.652,5.087,12.187c4.957-1.59,9.551-3.153,14.2-4.527C-331.129,327.009-328.3,326.988-326.883,331.991Z" transform="translate(765.314 28.438)" fill="#a2b1ec"/>
      <path id="Path_550" data-name="Path 550" d="M-445.879,337.31l-12.289-7.694c-2.747,3.962-5.29,7.794-8.005,11.5-1.97,2.689-4.242,4.939-8.372,1.909,3.671-6.919,9.488-12.05,14.172-18.36,5.68,1.587,9.717,5.13,13.974,8.2C-445.826,333.276-446.122,334.9-445.879,337.31Z" transform="translate(707.928 30.571)" fill="#a2b1ec"/>
      <path id="Path_551" data-name="Path 551" d="M-432.235,261.875c.618,7.908-1.657,14.505-6,17.278-1.153-4.619,2.388-8.34,2.011-13.293-4.407-1.447-9.064-2.747-13.54-4.507-4.456-1.755-4.42-2.05-3.253-7.522Z" transform="translate(717.989 -3.586)" fill="#a2b1ec"/>
      <path id="Path_552" data-name="Path 552" d="M-350.342,285.655l22.762,5.231c-2.124,4.687-4.8,5.453-8.222,4.37-4.218-1.334-8.391-2.807-13.376-4.487-1.543,4.214-3.015,8.234-4.556,12.44C-357.356,299.281-356.416,294.44-350.342,285.655Z" transform="translate(765.162 11.76)" fill="#a2b1ec"/>
      <path id="Path_553" data-name="Path 553" d="M-358.882,378.295c-5.794-.51-6.692-3.282-6.707-6.747-.019-4.368,0-8.738,0-13.436-4.826-.374-8.9-.689-13.456-1.041,1.531-5.047,5.08-3.264,7.88-3.239,3.107.028,6.211.2,9.91.328C-360.452,362.362-359.713,369.846-358.882,378.295Z" transform="translate(753.978 44.479)" fill="#a2b1ec"/>
      <path id="Path_554" data-name="Path 554" d="M-332.519,309.931c-2.769,6.187-6.978,8.6-13.147,8.146-3.3-4.387-4.74-8.846.074-13.759h7.788Z" transform="translate(768.616 20.76)" fill="#a2b1ec"/>
      <path id="Path_555" data-name="Path 555" d="M-378.066,366.146c.551,2.664,1.167,5.643,1.739,8.413-1.613,1.991-2.994,3.694-4.676,5.769l-7.453-2.729c-1.058-2.094-2.247-4.445-3.359-6.648C-386.7,364.286-386.7,364.286-378.066,366.146Z" transform="translate(747.822 50.062)" fill="#a2b1ec"/>
      <path id="Path_556" data-name="Path 556" d="M-459.387,283.448c-1.635-3.717-3.289-7.476-4.928-11.2,6.3-4.4,11.225-3.993,15.68.984C-450.146,282.488-450.689,283.085-459.387,283.448Z" transform="translate(712.861 3.825)" fill="#a2b1ec"/>
      <path id="Path_557" data-name="Path 557" d="M-384.084,242.634c1.527,5.1,6.009,7.2,4.67,12.326-.723,2.772-1.928,4.5-4.5,5.007-2.867.56-5.692.262-7.908-2.121a5.685,5.685,0,0,1-.523-7.352C-390.471,247.823-387.583,245.867-384.084,242.634Z" transform="translate(747.035 -8.986)" fill="#a2b1ec"/>
      <path id="Path_558" data-name="Path 558" d="M-460.712,346.441c7.651-5.459,10.279-4.513,13.537,5.535a42.608,42.608,0,0,1-3.059,3.563,37.8,37.8,0,0,1-3.83,2.83l-8.378-3.027C-461.843,352.263-461.363,349.791-460.712,346.441Z" transform="translate(713.764 39.479)" fill="#a2b1ec"/>
      <path id="Path_559" data-name="Path 559" d="M-423.643,347.887c1.568,3.892,3.138,7.785,4.973,12.337,3.677-2.44,7.272-4.826,10.868-7.211l1.112,1.654c-3.234,4.426-8.394,6.477-13.13,9.787-2.76-5.293-5.34-10.21-5.954-15.753Z" transform="translate(731.447 41.77)" fill="#a2b1ec"/>
      <path id="Path_560" data-name="Path 560" d="M-458.407,314.67c4.67-3.823,8.836-7.235,14.182-11.612-.246,7.785-7.269,7.5-9.286,12.255,3.242,2.4,6.626,4.911,10.3,7.638C-447.634,324.1-447.634,324.1-458.407,314.67Z" transform="translate(715.71 20.152)" fill="#a2b1ec"/>
      <path id="Path_561" data-name="Path 561" d="M-408.4,272.467c-5.349-.3-7.9-4.813-12.559-7.006-1.442,4.2-2.868,8.337-4.292,12.48l-1.825-.62c-.092-5.672,2.609-10.574,4.965-15.649C-412.815,266.363-410.607,268.06-408.4,272.467Z" transform="translate(730.816 0.195)" fill="#a2b1ec"/>
      <path id="Path_562" data-name="Path 562" d="M-439.566,276.58c3.706,3.772.212,8.02,1.138,12.008-4.174,2.349-7.4,5.412-12.522,4.288.667-5.419,6.006-3.471,8.661-6.457.209-2.856.459-6.3.711-9.743Z" transform="translate(719.307 7.384)" fill="#a2b1ec"/>
      <path id="Path_563" data-name="Path 563" d="M-357.451,301.733c1.644,1.457,2.34,2.074,3.245,2.874-1.789,2.816-3.473,5.466-5.263,8.287,1.918,2.48,3.686,4.765,6.286,8.124l-3.391,3.028c-2.666-4.368-4.66-7.633-6.9-11.308Z" transform="translate(761.487 19.513)" fill="#a2b1ec"/>
      <path id="Path_564" data-name="Path 564" d="M-390.013,351.076c3.671,1.765,8.624.209,11.351,3.7l-.817,2.4-8.874-1.811c-2.582,2.334-5.142,4.668-7.756,6.935-.089.077-.746-.5-1.536-1.052C-396.937,356.686-392.96,354.507-390.013,351.076Z" transform="translate(745.011 43.307)" fill="#a2b1ec"/>
      <path id="Path_565" data-name="Path 565" d="M-436.657,350.062c-6.166-1.847-2.535-6.31-5.308-10.086l-8.072-2.784.955-4.215,11.536,5C-437.245,342.068-436.952,346.064-436.657,350.062Z" transform="translate(719.746 34.579)" fill="#a2b1ec"/>
      <path id="Path_566" data-name="Path 566" d="M-377.271,279.022h16.662c-1.061,6.108-2.13,11.378-5.18,17.846-2.967-6.486,1.395-10.143,1.7-15.427l-13.488-.384Z" transform="translate(754.686 8.562)" fill="#a2b1ec"/>
      <path id="Path_567" data-name="Path 567" d="M-359.25,344.516c-5.916,1-11.249,2.053-17.969-.187,5.228-3.362,10.054-.674,14.83-2.444-1.307-4.1-2.632-8.263-4.309-13.527C-362.005,331.82-361.665,332.633-359.25,344.516Z" transform="translate(754.861 32.352)" fill="#a2b1ec"/>
      <path id="Path_568" data-name="Path 568" d="M-400.542,262.373c7.584-3.56,6.756,4.509,10.9,4.788,2.761-.384,5.953-.861,9.159-1.189.182-.019.489,1.181,1.134,2.822l-11.674,2.9Z" transform="translate(743.614 0.096)" fill="#a2b1ec"/>
      <path id="Path_569" data-name="Path 569" d="M-426.176,278.828c.5,3.009,1.009,6.016,1.559,9.3l5.364,1.3-.05,1.024h-7.608c-.892-3.855-2.776-7.527-1.089-11.5Z" transform="translate(730.046 8.468)" fill="#a2b1ec"/>
      <path id="Path_570" data-name="Path 570" d="M-407.725,353.832c-2.77-5.413,1.9-7.044,2.665-10.743l-3.765-4.632.87-.917,6.885,4.78C-403.281,346.146-405.247,349.544-407.725,353.832Z" transform="translate(739.62 36.78)" fill="#a2b1ec"/>
      <path id="Path_571" data-name="Path 571" d="M-431.345,325.491l-12.4-3.107c4.057-4.46,7.294.034,10.814-.615.91-1.307,1.985-2.847,3.059-4.389l1.018.414C-429.626,320.174-430.4,322.554-431.345,325.491Z" transform="translate(722.78 27.059)" fill="#a2b1ec"/>
      <path id="Path_572" data-name="Path 572" d="M-375.2,302.128c2.529-2.533,3.347-6.092,7.851-6.7-1.447,4.794-4.767,7.156-7.43,10.641l-6.628-5.011.445-.984Z" transform="translate(752.84 16.474)" fill="#a2b1ec"/>
      <path id="Path_573" data-name="Path 573" d="M-418.361,335.023l-5.378,1.439c-.378,3.11-.769,6.314-1.161,9.519-3.548-3.688-2.063-7.521-1.871-11.723l8.151-.866Z" transform="translate(730.739 34.78)" fill="#a2b1ec"/>
      <path id="Path_574" data-name="Path 574" d="M-433.689,301.546l-9.729,2.151c2.919-4.23,6.916-4.88,11.561-4.961.848,2.345,1.638,4.533,2.428,6.72l-.812.519Z" transform="translate(722.938 18.068)" fill="#a2b1ec"/>
      <path id="Path_575" data-name="Path 575" d="M-379.077,281.646l-9.227,5.146c.2,1.5.431,3.291.667,5.084l-1.177.414-2.936-7.313,11.661-5.266Z" transform="translate(747.854 8.893)" fill="#a2b1ec"/>
      <path id="Path_576" data-name="Path 576" d="M-409.9,286.593l3.989-3.818c-.591-3.726-5.3-5.477-3.878-11.409,2.951,4.3,5.136,7.482,7.635,11.124l-6.814,5.429Z" transform="translate(739.026 4.87)" fill="#a2b1ec"/>
      <path id="Path_577" data-name="Path 577" d="M-379.53,343.133l-10.97-4.26c.851-2.914,1.54-5.277,2.231-7.638l1.3.294c-.222,1.752-.443,3.5-.671,5.3l9.074,4.035Z" transform="translate(748.456 33.74)" fill="#a2b1ec"/>
      <path id="Path_578" data-name="Path 578" d="M-416.78,346.953c-1.779-2.435-3.425-4.853-.44-7.1a3.028,3.028,0,0,1,4.857,1.4C-410.953,344.744-413.438,345.986-416.78,346.953Z" transform="translate(734.777 37.544)" fill="#a2b1ec"/>
      <path id="Path_579" data-name="Path 579" d="M-373.263,330.077l-4.423,4.685-5.035-2.735,3.977-6.781Z" transform="translate(752.208 30.852)" fill="#a2b1ec"/>
      <path id="Path_580" data-name="Path 580" d="M-381.049,321.484l6.061-5.2,9.13,9.754c-5.99.777-6.042-4.626-10.082-5.65l-4.628,2.062Z" transform="translate(753.014 26.528)" fill="#a2b1ec"/>
      <path id="Path_581" data-name="Path 581" d="M-436.289,307.542V314.5c-3.273,1.891-5.149.787-6.368-3.222C-440.955,310.28-439.085,309.183-436.289,307.542Z" transform="translate(723.305 22.314)" fill="#a2b1ec"/>
      <path id="Path_582" data-name="Path 582" d="M-420.029,282.892c.5-2.326.915-4.253,1.608-7.472l5.613,4.473C-413.827,283.722-416.071,283.854-420.029,282.892Z" transform="translate(734.217 6.825)" fill="#a2b1ec"/>
      <path id="Path_583" data-name="Path 583" d="M-378.685,295.074l-4.167-2.354c.3-4.9,3.074-4.928,7.764-4.164Z" transform="translate(752.145 12.982)" fill="#a2b1ec"/>
      <path id="Path_584" data-name="Path 584" d="M-384.01,306.159l6.292,4.888-6.249,5.348-.919-.867,4.1-4.5c-1.344-1.278-2.671-2.536-4-3.794Z" transform="translate(751.164 21.648)" fill="#a2b1ec"/>
      <path id="Path_585" data-name="Path 585" d="M-393.327,331.1l-2.684,6.55-6.82-3.872.366-1.064,5.662,1.992,2.164-4.343Z" transform="translate(742.51 33.32)" fill="#a2b1ec"/>
      <path id="Path_586" data-name="Path 586" d="M-425.053,321.277l-1.158,5.243,5.441,1.863-.334,1.169-7.276-1.536c.723-2.664,1.335-4.912,1.946-7.161Z" transform="translate(730.19 28.735)" fill="#a2b1ec"/>
      <path id="Path_587" data-name="Path 587" d="M-382.355,321.79c-2.011,2.827-3.723,5.231-5.314,7.464C-389.2,324.08-389.072,323.88-382.355,321.79Z" transform="translate(749.436 29.185)" fill="#a2b1ec"/>
      <path id="Path_588" data-name="Path 588" d="M-417.31,333.74c5.541-2.254,5.541-2.254,8.95,2.858Z" transform="translate(735.528 34.253)" fill="#a2b1ec"/>
      <path id="Path_589" data-name="Path 589" d="M-432.152,307.447a9.476,9.476,0,0,1,1.525,1.347,32.381,32.381,0,0,1,1.762,2.981l-3.288,5.91Z" transform="translate(728.371 22.269)" fill="#a2b1ec"/>
      <path id="Path_590" data-name="Path 590" d="M-418.986,287.642c3.7-.48,7.808,2.206,9.022-3.329C-411.379,290.595-412.595,291.022-418.986,287.642Z" transform="translate(734.72 11.113)" fill="#a2b1ec"/>
      <path id="Path_591" data-name="Path 591" d="M-388.637,292.454l4.463,6.209C-388.547,298.859-388.913,298.413-388.637,292.454Z" transform="translate(749.321 15.039)" fill="#a2b1ec"/>
      <path id="Path_592" data-name="Path 592" d="M-404.354,330.951c-2.244-1.2-4.576-2.456-2.406-6.145C-405.769,327.336-405.062,329.143-404.354,330.951Z" transform="translate(740.199 30.639)" fill="#a2b1ec"/>
      <path id="Path_593" data-name="Path 593" d="M-419.218,326.411l5.791-3.983C-414.2,326.042-416.288,326.775-419.218,326.411Z" transform="translate(734.608 29.493)" fill="#a2b1ec"/>
      <path id="Path_594" data-name="Path 594" d="M-427.242,295.205l1.547,6.249-1.15.31q-1-3.048-2.007-6.093Z" transform="translate(729.962 16.365)" fill="#a2b1ec"/>
      <path id="Path_595" data-name="Path 595" d="M-421,307.7l-4.389-3.248.751-1.075,4.389,3.251Z" transform="translate(731.633 20.308)" fill="#a2b1ec"/>
      <path id="Path_596" data-name="Path 596" d="M-419.787,295.173c3.64-.16,5.383.385,5.5,3.96Z" transform="translate(734.334 16.338)" fill="#a2b1ec"/>
      <path id="Path_597" data-name="Path 597" d="M-394.808,294.9l-2.294,4.478-1.3-.631,2.61-4.539Z" transform="translate(744.648 15.885)" fill="#a2b1ec"/>
      <path id="Path_598" data-name="Path 598" d="M-405.113,291.159l-2.3,5.558C-409.339,293.436-407.037,292.1-405.113,291.159Z" transform="translate(739.95 14.414)" fill="#a2b1ec"/>
      <path id="Path_599" data-name="Path 599" d="M-392.574,304.05h5.581l.116.935-5.609.439Z" transform="translate(747.456 20.631)" fill="#a2b1ec"/>
      <path id="Path_600" data-name="Path 600" d="M-396.342,322.132l1.263,5.493-2.388-5.238Z" transform="translate(745.097 29.35)" fill="#a2b1ec"/>
      <path id="Path_601" data-name="Path 601" d="M-391.592,315.583l4.241-1.414.422,1.276-4,1.316Z" transform="translate(747.93 25.51)" fill="#a2b1ec"/>
    </g>
  </g>
</svg>
