<svg xmlns="http://www.w3.org/2000/svg" width="20" height="19.929" viewBox="0 0 20 19.929">
  <g id="calendar" transform="translate(0)">
    <rect id="Rectangle_24" data-name="Rectangle 24" width="20" height="18" rx="2" transform="translate(0 1.928)" fill="#281da8"/>
    <rect id="Rectangle_25" data-name="Rectangle 25" width="18" height="12" rx="1" transform="translate(1 6.928)" fill="#fff"/>
    <rect id="Rectangle_26" data-name="Rectangle 26" width="3" height="3" rx="1.5" transform="translate(4 1.928)" fill="#fff"/>
    <rect id="Rectangle_29" data-name="Rectangle 29" width="3" height="3" rx="1.5" transform="translate(13 1.928)" fill="#fff"/>
    <rect id="Rectangle_28" data-name="Rectangle 28" width="1.5" height="3.489" rx="0.75" transform="translate(4.75)" fill="#281da8"/>
    <rect id="Rectangle_58" data-name="Rectangle 58" width="1.5" height="3.489" rx="0.75" transform="translate(13.75)" fill="#281da8"/>
    <g id="Group_21" data-name="Group 21" transform="translate(2.296 7.938)">
      <rect id="Rectangle_50" data-name="Rectangle 50" width="1.789" height="1.759" rx="0.5" transform="translate(0 2.417)" fill="#281da8"/>
      <rect id="Rectangle_85" data-name="Rectangle 85" width="1.789" height="1.759" rx="0.5" transform="translate(0 4.93)" fill="#281da8"/>
      <rect id="Rectangle_92" data-name="Rectangle 92" width="1.789" height="1.759" rx="0.5" transform="translate(0 7.443)" fill="#281da8"/>
      <rect id="Rectangle_49" data-name="Rectangle 49" width="1.789" height="1.759" rx="0.5" transform="translate(2.315 2.417)" fill="#281da8"/>
      <rect id="Rectangle_86" data-name="Rectangle 86" width="1.789" height="1.759" rx="0.5" transform="translate(2.315 4.93)" fill="#281da8"/>
      <rect id="Rectangle_93" data-name="Rectangle 93" width="1.789" height="1.759" rx="0.5" transform="translate(2.315 7.443)" fill="#281da8"/>
      <rect id="Rectangle_41" data-name="Rectangle 41" width="1.789" height="1.759" rx="0.5" transform="translate(4.455)" fill="#281da8"/>
      <rect id="Rectangle_60" data-name="Rectangle 60" width="1.789" height="1.759" rx="0.5" transform="translate(6.682)" fill="#281da8"/>
      <rect id="Rectangle_64" data-name="Rectangle 64" width="1.789" height="1.759" rx="0.5" transform="translate(8.91)" fill="#281da8"/>
      <rect id="Rectangle_68" data-name="Rectangle 68" width="1.789" height="1.759" rx="0.5" transform="translate(11.05)" fill="#281da8"/>
      <rect id="Rectangle_72" data-name="Rectangle 72" width="1.789" height="1.759" rx="0.5" transform="translate(13.365)" fill="#281da8"/>
      <rect id="Rectangle_48" data-name="Rectangle 48" width="1.789" height="1.759" rx="0.5" transform="translate(4.455 2.417)" fill="#281da8"/>
      <rect id="Rectangle_87" data-name="Rectangle 87" width="1.789" height="1.759" rx="0.5" transform="translate(4.455 4.93)" fill="#281da8"/>
      <rect id="Rectangle_94" data-name="Rectangle 94" width="1.789" height="1.759" rx="0.5" transform="translate(4.455 7.443)" fill="#281da8"/>
      <rect id="Rectangle_61" data-name="Rectangle 61" width="1.789" height="1.759" rx="0.5" transform="translate(6.682 2.417)" fill="#281da8"/>
      <rect id="Rectangle_88" data-name="Rectangle 88" width="1.789" height="1.759" rx="0.5" transform="translate(6.682 4.93)" fill="#281da8"/>
      <rect id="Rectangle_95" data-name="Rectangle 95" width="1.789" height="1.759" rx="0.5" transform="translate(6.682 7.443)" fill="#281da8"/>
      <rect id="Rectangle_65" data-name="Rectangle 65" width="1.789" height="1.759" rx="0.5" transform="translate(8.91 2.417)" fill="#281da8"/>
      <rect id="Rectangle_89" data-name="Rectangle 89" width="1.789" height="1.759" rx="0.5" transform="translate(8.91 4.93)" fill="#281da8"/>
      <rect id="Rectangle_96" data-name="Rectangle 96" width="1.789" height="1.759" rx="0.5" transform="translate(8.91 7.443)" fill="#281da8"/>
      <rect id="Rectangle_69" data-name="Rectangle 69" width="1.789" height="1.759" rx="0.5" transform="translate(11.05 2.417)" fill="#281da8"/>
      <rect id="Rectangle_90" data-name="Rectangle 90" width="1.789" height="1.759" rx="0.5" transform="translate(11.05 4.93)" fill="#281da8"/>
      <rect id="Rectangle_73" data-name="Rectangle 73" width="1.789" height="1.759" rx="0.5" transform="translate(13.365 2.417)" fill="#281da8"/>
      <rect id="Rectangle_91" data-name="Rectangle 91" width="1.789" height="1.759" rx="0.5" transform="translate(13.365 4.93)" fill="#281da8"/>
    </g>
  </g>
</svg>
