<svg id="clock" xmlns="http://www.w3.org/2000/svg" width="19" height="19" viewBox="0 0 19 19">
  <g id="Group_40" data-name="Group 40">
    <path id="Path_147" data-name="Path 147" d="M172.869,862h1.262a.482.482,0,0,0,.085.027c.318.04.638.067.954.119a9.022,9.022,0,0,1,2.541.832,9.549,9.549,0,0,1,4.756,5.368,8.944,8.944,0,0,1,.505,2.419.532.532,0,0,0,.028.1v1.262a.749.749,0,0,0-.028.1c-.04.312-.066.626-.118.936a9.034,9.034,0,0,1-.832,2.54,9.55,9.55,0,0,1-5.368,4.756,8.942,8.942,0,0,1-2.42.505.529.529,0,0,0-.1.028h-1.262a.487.487,0,0,0-.085-.027c-.318-.04-.638-.067-.954-.119a9.022,9.022,0,0,1-2.541-.832,9.549,9.549,0,0,1-4.756-5.368,8.945,8.945,0,0,1-.505-2.42.532.532,0,0,0-.028-.1v-1.262a.757.757,0,0,0,.028-.1c.04-.312.066-.626.118-.936a9.035,9.035,0,0,1,.832-2.541,9.55,9.55,0,0,1,5.368-4.756,8.945,8.945,0,0,1,2.42-.505A.538.538,0,0,0,172.869,862Zm9.3,9.5a8.669,8.669,0,1,0-8.674,8.669A8.658,8.658,0,0,0,182.172,871.5Z" transform="translate(-164 -862)" fill="#281da8"/>
    <path id="Path_148" data-name="Path 148" d="M203.82,893.145a8.669,8.669,0,1,1-8.68-8.663A8.658,8.658,0,0,1,203.82,893.145Zm-8.256-2.083q0-.853,0-1.706a1.318,1.318,0,0,0-.007-.185.411.411,0,0,0-.816,0,1.282,1.282,0,0,0-.008.185c0,1.224,0,2.448,0,3.672a.648.648,0,0,0,.2.494q2.187,2.181,4.369,4.366a.984.984,0,0,0,.156.13.388.388,0,0,0,.507-.06.383.383,0,0,0,.053-.493,1.278,1.278,0,0,0-.168-.2q-2.065-2.067-4.134-4.129a.489.489,0,0,1-.157-.389C195.569,892.188,195.564,891.625,195.564,891.062Zm0-4.794c0-.081,0-.137-.01-.192a.406.406,0,0,0-.405-.359.4.4,0,0,0-.41.353,1.323,1.323,0,0,0,0,.332.4.4,0,0,0,.382.34.4.4,0,0,0,.418-.3A1.159,1.159,0,0,0,195.567,886.268Zm-7.333,7.3a1.635,1.635,0,0,0,.165-.011.4.4,0,0,0,.343-.4.4.4,0,0,0-.349-.412,1.311,1.311,0,0,0-.332,0,.4.4,0,0,0-.344.4.406.406,0,0,0,.349.414C188.121,893.564,188.177,893.563,188.234,893.566Zm13.844-.835c-.059,0-.115,0-.17.01a.4.4,0,0,0-.353.409.4.4,0,0,0,.357.405,1.305,1.305,0,0,0,.332,0,.4.4,0,0,0,.336-.405.407.407,0,0,0-.339-.4A1.533,1.533,0,0,0,202.078,892.731Zm-7.348,7.308c0,.081,0,.137.012.191a.406.406,0,0,0,.4.349.4.4,0,0,0,.416-.344,1.3,1.3,0,0,0,0-.351.391.391,0,0,0-.372-.328.4.4,0,0,0-.423.288A1.194,1.194,0,0,0,194.729,900.039Zm-3.98-11.711a.43.43,0,0,0-.022-.121.782.782,0,0,0-.411-.4.387.387,0,0,0-.444.136.367.367,0,0,0-.027.461,1.426,1.426,0,0,0,.285.285.35.35,0,0,0,.4.011A.41.41,0,0,0,190.749,888.328Zm9.774-.135a.439.439,0,0,0-.224-.361.347.347,0,0,0-.4.011,1.437,1.437,0,0,0-.275.269.37.37,0,0,0,.006.462.4.4,0,0,0,.439.159.786.786,0,0,0,.448-.5C200.519,888.218,200.521,888.206,200.523,888.194ZM190.2,898.523l.084-.021a.738.738,0,0,0,.4-.334.393.393,0,0,0-.054-.492.387.387,0,0,0-.5-.063,1.425,1.425,0,0,0-.284.286.347.347,0,0,0-.011.4A.447.447,0,0,0,190.2,898.523Z" transform="translate(-185.649 -883.648)" fill="#fff"/>
    <path id="Path_149" data-name="Path 149" d="M409.561,1003.292c0,.563,0,1.125,0,1.688a.488.488,0,0,0,.157.389q2.072,2.059,4.134,4.129a1.273,1.273,0,0,1,.168.2.383.383,0,0,1-.053.493.388.388,0,0,1-.507.06.975.975,0,0,1-.156-.13q-2.185-2.183-4.369-4.366a.648.648,0,0,1-.2-.494c.006-1.224,0-2.448,0-3.672a1.279,1.279,0,0,1,.008-.185.411.411,0,0,1,.816,0,1.313,1.313,0,0,1,.007.185Q409.561,1002.439,409.561,1003.292Z" transform="translate(-399.645 -995.878)" fill="#281da8"/>
    <path id="Path_150" data-name="Path 150" d="M409.632,918.294a1.157,1.157,0,0,1-.023.177.4.4,0,0,1-.418.3.4.4,0,0,1-.382-.34,1.324,1.324,0,0,1,0-.332.4.4,0,0,1,.41-.353.406.406,0,0,1,.405.359C409.63,918.157,409.628,918.213,409.632,918.294Z" transform="translate(-399.714 -915.674)" fill="#281da8"/>
    <path id="Path_151" data-name="Path 151" d="M220.258,1107.63c-.057,0-.113,0-.167-.01a.406.406,0,0,1-.349-.414.4.4,0,0,1,.344-.4,1.306,1.306,0,0,1,.332,0,.4.4,0,0,1,.349.412.4.4,0,0,1-.343.4A1.6,1.6,0,0,1,220.258,1107.63Z" transform="translate(-217.673 -1097.713)" fill="#281da8"/>
    <path id="Path_152" data-name="Path 152" d="M593.151,1106.744a1.5,1.5,0,0,1,.163.012.407.407,0,0,1,.339.4.4.4,0,0,1-.336.405,1.311,1.311,0,0,1-.332,0,.4.4,0,0,1-.357-.4.4.4,0,0,1,.353-.409C593.036,1106.746,593.092,1106.747,593.151,1106.744Z" transform="translate(-576.722 -1097.662)" fill="#281da8"/>
    <path id="Path_153" data-name="Path 153" d="M408.706,1291.133a1.192,1.192,0,0,1,.026-.195.4.4,0,0,1,.423-.288.391.391,0,0,1,.372.329,1.3,1.3,0,0,1,0,.35.4.4,0,0,1-.416.344.406.406,0,0,1-.4-.349C408.709,1291.27,408.711,1291.214,408.706,1291.133Z" transform="translate(-399.625 -1274.743)" fill="#281da8"/>
    <path id="Path_154" data-name="Path 154" d="M276.194,973.839a.41.41,0,0,1-.219.367.35.35,0,0,1-.4-.011,1.425,1.425,0,0,1-.285-.285.367.367,0,0,1,.027-.461.387.387,0,0,1,.444-.136.781.781,0,0,1,.411.4A.428.428,0,0,1,276.194,973.839Z" transform="translate(-271.093 -969.16)" fill="#281da8"/>
    <path id="Path_155" data-name="Path 155" d="M539.484,973.621c0,.012,0,.024-.006.036a.786.786,0,0,1-.448.5.4.4,0,0,1-.439-.159.37.37,0,0,1-.006-.462,1.43,1.43,0,0,1,.275-.269.347.347,0,0,1,.4-.011A.439.439,0,0,1,539.484,973.621Z" transform="translate(-524.61 -969.076)" fill="#281da8"/>
    <path id="Path_156" data-name="Path 156" d="M275.628,1237.494a.447.447,0,0,1-.367-.225.347.347,0,0,1,.011-.4,1.424,1.424,0,0,1,.284-.286.387.387,0,0,1,.5.063.393.393,0,0,1,.054.492.737.737,0,0,1-.4.334Z" transform="translate(-271.077 -1222.62)" fill="#281da8"/>
  </g>
</svg>
