<svg id="dayi" xmlns="http://www.w3.org/2000/svg" xmlns:xlink="http://www.w3.org/1999/xlink" width="28" height="28" viewBox="0 0 28 28">
  <defs>
    <clipPath id="clip-path">
      <rect id="Rectangle_148" data-name="Rectangle 148" width="28" height="28" rx="0.5" fill="#898989"/>
    </clipPath>
  </defs>
  <rect id="Rectangle_147" data-name="Rectangle 147" width="28" height="28" rx="1" transform="translate(0 0)" fill="#f5f5f5"/>
  <g id="Mask_Group_1" data-name="Mask Group 1" transform="translate(0 0)" clip-path="url(#clip-path)">
    <g id="Group_67" data-name="Group 67" transform="translate(-3.158 -6.694)" opacity="0.659">
      <path id="Path_128" data-name="Path 128" d="M2461.792-387.455l.635.419.691.27.076.655.224.84-1.144.522h-1.767l.434-1.65Z" transform="translate(-2448.008 408.391)" fill="#6472d9"/>
      <path id="Path_138" data-name="Path 138" d="M2.417,0,3.611.789l1.3.509.145,1.234.421,1.582L3.325,5.1H0L.816,1.992Z" transform="translate(9.057 16.177) rotate(36)" fill="#6472d9"/>
      <path id="Path_141" data-name="Path 141" d="M4.526,0,6.762,1.478,9.2,2.431l.271,2.31L10.259,7.7,6.227,9.545H0L1.529,3.729Z" transform="translate(9.128 5.178) rotate(73)" fill="#6472d9"/>
      <path id="Path_129" data-name="Path 129" d="M1.284,0l.634.419.691.27.077.655.224.841-1.144.522H0l.434-1.65Z" transform="translate(15.09 16.017) rotate(74)" fill="#6472d9"/>
      <path id="Path_137" data-name="Path 137" d="M2.417,0,3.611.789l1.3.509.145,1.234.421,1.582L3.325,5.1H0L.816,1.992Z" transform="matrix(-0.342, 0.94, -0.94, -0.342, 18.397, 11.317)" fill="#6472d9"/>
      <path id="Path_142" data-name="Path 142" d="M4.526,0,6.762,1.478,9.2,2.431l.271,2.31L10.259,7.7,6.227,9.545H0L1.529,3.729Z" transform="matrix(-0.799, 0.602, -0.602, -0.799, 28.634, 7.623)" fill="#6472d9"/>
      <path id="Path_130" data-name="Path 130" d="M1.284,0l.634.419.691.27.077.655.224.841-1.144.522H0l.434-1.65Z" transform="translate(16.514 24.772) rotate(-71)" fill="#6472d9"/>
      <path id="Path_134" data-name="Path 134" d="M2.417,0,3.611.789l1.3.509.145,1.234.421,1.582L3.325,5.1H0L.816,1.992Z" transform="matrix(0.819, -0.574, 0.574, 0.819, 10.976, 26.507)" fill="#6472d9"/>
      <path id="Path_140" data-name="Path 140" d="M4.526,0,6.762,1.478,9.2,2.431l.271,2.31L10.259,7.7,6.227,9.545H0L1.529,3.729Z" transform="translate(0.409 23.535) rotate(-2)" fill="#6472d9"/>
      <path id="Path_131" data-name="Path 131" d="M1.284,0l.634.419.691.27.077.655.224.841-1.144.522H0l.434-1.65Z" transform="translate(21.381 22.137) rotate(-143)" fill="#6472d9"/>
      <path id="Path_135" data-name="Path 135" d="M2.417,0,3.611.789l1.3.509.145,1.234.421,1.582L3.325,5.1H0L.816,1.992Z" transform="translate(21.395 27.927) rotate(-107)" fill="#6472d9"/>
      <path id="Path_139" data-name="Path 139" d="M4.526,0,6.762,1.478,9.2,2.431l.271,2.31L10.259,7.7,6.227,9.545H0L1.529,3.729Z" transform="translate(15.002 36.729) rotate(-71)" fill="#6472d9"/>
      <path id="Path_132" data-name="Path 132" d="M1.284,0l.634.419.691.27.077.655.224.841-1.144.522H0l.434-1.65Z" transform="translate(20.424 16.751) rotate(145)" fill="#6472d9"/>
      <path id="Path_136" data-name="Path 136" d="M2.417,0,3.611.789l1.3.509.145,1.234.421,1.582L3.325,5.1H0L.816,1.992Z" transform="matrix(-1, -0.017, 0.017, -1, 25.897, 18.43)" fill="#6472d9"/>
      <path id="Path_143" data-name="Path 143" d="M4.526,0,6.762,1.478,9.2,2.431l.271,2.31L10.259,7.7,6.227,9.545H0L1.529,3.729Z" transform="translate(32.423 27.267) rotate(-143)" fill="#6472d9"/>
      <path id="Path_133" data-name="Path 133" d="M2496.278-466.89l-.294.85v1.147l-.974.338-.783.616.664.481,1.148.4.053,1.079.309.9.726-.525.679-.916,1.022.279h.987l-.284-.812-.7-.984.623-.911.278-.918h-.855l-1.067.309-.756-.824Z" transform="translate(-2480.146 484.102)" fill="#6472d9"/>
    </g>
  </g>
</svg>
