<svg xmlns="http://www.w3.org/2000/svg" width="27.934" height="29.156" viewBox="0 0 27.934 29.156">
  <g id="Group_36" data-name="Group 36" transform="translate(-2193.868 834.037)">
    <path id="Path_128" data-name="Path 128" d="M2461.448-387.456l.464.307.506.2.056.48.164.615-.837.382h-1.293l.317-1.207Z" transform="translate(-257.492 -431.259)" fill="#898989"/>
    <path id="Path_138" data-name="Path 138" d="M1.769,0l.874.578L3.6.95l.106.9L4.01,3.011l-1.576.72H0L.6,1.458Z" transform="translate(2200.496 -822.198) rotate(36)" fill="#898989"/>
    <path id="Path_141" data-name="Path 141" d="M3.313,0,4.949,1.082l1.784.7.2,1.691.577,2.169L4.558,6.986H0L1.119,2.729Z" transform="translate(2200.548 -830.248) rotate(73)" fill="#898989"/>
    <path id="Path_129" data-name="Path 129" d="M.94,0,1.4.307,1.91.5l.056.48L2.13,1.6l-.837.382H0L.317.774Z" transform="translate(2204.912 -822.314) rotate(74)" fill="#898989"/>
    <path id="Path_137" data-name="Path 137" d="M1.769,0l.874.578L3.6.95l.106.9L4.01,3.011l-1.576.72H0L.6,1.458Z" transform="matrix(-0.342, 0.94, -0.94, -0.342, 2207.332, -825.755)" fill="#898989"/>
    <path id="Path_142" data-name="Path 142" d="M3.313,0,4.949,1.082l1.784.7.2,1.691.577,2.169L4.558,6.986H0L1.119,2.729Z" transform="matrix(-0.799, 0.602, -0.602, -0.799, 2214.824, -828.458)" fill="#898989"/>
    <path id="Path_130" data-name="Path 130" d="M.94,0,1.4.307,1.91.5l.056.48L2.13,1.6l-.837.382H0L.317.774Z" transform="translate(2205.955 -815.907) rotate(-71)" fill="#898989"/>
    <path id="Path_134" data-name="Path 134" d="M1.769,0l.874.578L3.6.95l.106.9L4.01,3.011l-1.576.72H0L.6,1.458Z" transform="matrix(0.819, -0.574, 0.574, 0.819, 2201.901, -814.637)" fill="#898989"/>
    <path id="Path_140" data-name="Path 140" d="M3.313,0,4.949,1.082l1.784.7.2,1.691.577,2.169L4.558,6.986H0L1.119,2.729Z" transform="translate(2194.167 -816.812) rotate(-2)" fill="#898989"/>
    <path id="Path_131" data-name="Path 131" d="M.94,0,1.4.307,1.91.5l.056.48L2.13,1.6l-.837.382H0L.317.774Z" transform="translate(2209.517 -817.835) rotate(-143)" fill="#898989"/>
    <path id="Path_135" data-name="Path 135" d="M1.769,0l.874.578L3.6.95l.106.9L4.01,3.011l-1.576.72H0L.6,1.458Z" transform="translate(2209.526 -813.598) rotate(-107)" fill="#898989"/>
    <path id="Path_139" data-name="Path 139" d="M3.313,0,4.949,1.082l1.784.7.2,1.691.577,2.169L4.558,6.986H0L1.119,2.729Z" transform="translate(2204.847 -807.156) rotate(-71)" fill="#898989"/>
    <path id="Path_132" data-name="Path 132" d="M.94,0,1.4.307,1.91.5l.056.48L2.13,1.6l-.837.382H0L.317.774Z" transform="translate(2208.816 -821.777) rotate(145)" fill="#898989"/>
    <path id="Path_136" data-name="Path 136" d="M1.769,0l.874.578L3.6.95l.106.9L4.01,3.011l-1.576.72H0L.6,1.458Z" transform="matrix(-1, -0.017, 0.017, -1, 2212.822, -820.548)" fill="#898989"/>
    <path id="Path_143" data-name="Path 143" d="M3.313,0,4.949,1.082l1.784.7.2,1.691.577,2.169L4.558,6.986H0L1.119,2.729Z" transform="translate(2217.598 -814.081) rotate(-143)" fill="#898989"/>
    <path id="Path_133" data-name="Path 133" d="M2495.728-466.89l-.215.622v.84l-.713.248-.573.451.486.352.841.294.039.79.226.656.531-.384.5-.67.748.2h.722l-.208-.595-.514-.72.456-.667.2-.672h-.626l-.781.226-.553-.6Z" transform="translate(-290.053 -354.55)" fill="#898989"/>
  </g>
</svg>
