<svg id="month" xmlns="http://www.w3.org/2000/svg" width="42.542" height="25.722" viewBox="0 0 42.542 25.722">
  <rect id="Rectangle_43" data-name="Rectangle 43" width="5.021" height="5.021" rx="0.5" transform="translate(0 6.9)" fill="#281da8"/>
  <rect id="Rectangle_50" data-name="Rectangle 50" width="5.021" height="5.021" rx="0.5" transform="translate(0 13.8)" fill="#281da8"/>
  <rect id="Rectangle_57" data-name="Rectangle 57" width="5.021" height="5.021" rx="0.5" transform="translate(0 20.7)" fill="#281da8"/>
  <rect id="Rectangle_42" data-name="Rectangle 42" width="5.021" height="5.021" rx="0.5" transform="translate(6.499 6.9)" fill="#281da8"/>
  <rect id="Rectangle_49" data-name="Rectangle 49" width="5.021" height="5.021" rx="0.5" transform="translate(6.499 13.8)" fill="#281da8"/>
  <rect id="Rectangle_56" data-name="Rectangle 56" width="5.021" height="5.021" rx="0.5" transform="translate(6.499 20.7)" fill="#281da8"/>
  <rect id="Rectangle_32" data-name="Rectangle 32" width="5.021" height="5.021" rx="0.5" transform="translate(12.507)" fill="#281da8"/>
  <rect id="Rectangle_59" data-name="Rectangle 59" width="5.021" height="5.021" rx="0.5" transform="translate(18.76)" fill="#281da8"/>
  <rect id="Rectangle_63" data-name="Rectangle 63" width="5.021" height="5.021" rx="0.5" transform="translate(25.014)" fill="#281da8"/>
  <rect id="Rectangle_67" data-name="Rectangle 67" width="5.021" height="5.021" rx="0.5" transform="translate(31.021)" fill="#281da8"/>
  <rect id="Rectangle_71" data-name="Rectangle 71" width="5.021" height="5.021" rx="0.5" transform="translate(37.52)" fill="#281da8"/>
  <rect id="Rectangle_41" data-name="Rectangle 41" width="5.021" height="5.021" rx="0.5" transform="translate(12.507 6.9)" fill="#281da8"/>
  <rect id="Rectangle_60" data-name="Rectangle 60" width="5.021" height="5.021" rx="0.5" transform="translate(18.76 6.9)" fill="#281da8"/>
  <rect id="Rectangle_64" data-name="Rectangle 64" width="5.021" height="5.021" rx="0.5" transform="translate(25.014 6.9)" fill="#281da8"/>
  <rect id="Rectangle_68" data-name="Rectangle 68" width="5.021" height="5.021" rx="0.5" transform="translate(31.021 6.9)" fill="#281da8"/>
  <rect id="Rectangle_72" data-name="Rectangle 72" width="5.021" height="5.021" rx="0.5" transform="translate(37.52 6.9)" fill="#281da8"/>
  <rect id="Rectangle_48" data-name="Rectangle 48" width="5.021" height="5.021" rx="0.5" transform="translate(12.507 13.8)" fill="#281da8"/>
  <rect id="Rectangle_61" data-name="Rectangle 61" width="5.021" height="5.021" rx="0.5" transform="translate(18.76 13.8)" fill="#281da8"/>
  <rect id="Rectangle_65" data-name="Rectangle 65" width="5.021" height="5.021" rx="0.5" transform="translate(25.014 13.8)" fill="#281da8"/>
  <rect id="Rectangle_69" data-name="Rectangle 69" width="5.021" height="5.021" rx="0.5" transform="translate(31.021 13.8)" fill="#281da8"/>
  <rect id="Rectangle_73" data-name="Rectangle 73" width="5.021" height="5.021" rx="0.5" transform="translate(37.52 13.8)" fill="#281da8"/>
  <rect id="Rectangle_55" data-name="Rectangle 55" width="5.021" height="5.021" rx="0.5" transform="translate(12.507 20.7)" fill="#281da8"/>
  <rect id="Rectangle_62" data-name="Rectangle 62" width="5.021" height="5.021" rx="0.5" transform="translate(18.76 20.7)" fill="#281da8"/>
  <rect id="Rectangle_66" data-name="Rectangle 66" width="5.021" height="5.021" rx="0.5" transform="translate(25.014 20.7)" fill="#281da8"/>
</svg>
