<svg id="settings" xmlns="http://www.w3.org/2000/svg" width="29.464" height="29.461" viewBox="0 0 29.464 29.461">
  <g id="Group_16" data-name="Group 16">
    <path id="Path_122" data-name="Path 122" d="M735.214,93.034c.155-1,.274-1.917.449-2.827a1.091,1.091,0,0,0-.334-1.074,1.348,1.348,0,0,0-1.475-.478c-.79.189-1.61.256-2.414.393a.319.319,0,0,1-.382-.162,15.262,15.262,0,0,1-2.136-5.138.358.358,0,0,1,.163-.422c.818-.586,1.624-1.188,2.443-1.773a.43.43,0,0,0,.215-.443,2.043,2.043,0,0,1,0-.569.91.91,0,0,0-.491-1.01c-.745-.492-1.456-1.039-2.167-1.581a.465.465,0,0,1-.15-.379,14.455,14.455,0,0,1,2.146-5.164.466.466,0,0,1,.38-.145q1.51.21,3.014.467a.409.409,0,0,0,.431-.159,2.836,2.836,0,0,1,.47-.476.77.77,0,0,0,.314-.888c-.172-.911-.308-1.829-.436-2.747a.463.463,0,0,1,.154-.376,14.861,14.861,0,0,1,5.13-2.149.376.376,0,0,1,.443.184c.578.81,1.175,1.606,1.754,2.415a.413.413,0,0,0,.439.22.623.623,0,0,1,.234,0,1.392,1.392,0,0,0,1.607-.836c.382-.628.865-1.194,1.29-1.8a.376.376,0,0,1,.445-.182,14.9,14.9,0,0,1,5.129,2.151.426.426,0,0,1,.152.341c-.144,1.018-.315,2.031-.459,3.049a.693.693,0,0,0,.128.4c.067.111.213.173.281.284a1.208,1.208,0,0,0,1.494.474c.773-.173,1.565-.256,2.347-.388a.353.353,0,0,1,.412.181,15.3,15.3,0,0,1,2.128,5.141.328.328,0,0,1-.156.39c-.817.587-1.623,1.19-2.441,1.775a.446.446,0,0,0-.228.472,1.108,1.108,0,0,1,.011.4c-.142.623.165.97.664,1.289.686.438,1.321.958,1.986,1.431a.347.347,0,0,1,.16.419,15.232,15.232,0,0,1-2.118,5.109.359.359,0,0,1-.433.186c-1-.172-2.007-.326-3.014-.469a.566.566,0,0,0-.373.126c-.158.121-.263.316-.428.422a.934.934,0,0,0-.373,1.121c.173.876.295,1.763.419,2.648a.4.4,0,0,1-.146.314,14.5,14.5,0,0,1-5.2,2.156.468.468,0,0,1-.368-.173q-.9-1.191-1.764-2.408a.47.47,0,0,0-.5-.236,1.263,1.263,0,0,1-.435.01,1.019,1.019,0,0,0-1.169.573c-.46.713-1,1.375-1.492,2.066a.348.348,0,0,1-.413.173,14.985,14.985,0,0,1-5.107-2.12A1.56,1.56,0,0,1,735.214,93.034Zm14.841-12.378a6.443,6.443,0,1,0-6.475,6.41A6.457,6.457,0,0,0,750.055,80.656Z" transform="translate(-728.907 -65.92)" fill="#070860"/>
  </g>
</svg>
