<svg id="week" xmlns="http://www.w3.org/2000/svg" width="44.429" height="25.936" viewBox="0 0 44.429 25.936">
  <rect id="Rectangle_43" data-name="Rectangle 43" width="5.244" height="5.244" rx="0.5" transform="translate(0 0)" fill="#fff"/>
  <rect id="Rectangle_50" data-name="Rectangle 50" width="5.244" height="18.73" rx="0.5" transform="translate(0 7.206)" fill="#fff"/>
  <rect id="Rectangle_42" data-name="Rectangle 42" width="5.244" height="5.244" rx="0.5" transform="translate(6.788 0)" fill="#fff"/>
  <rect id="Rectangle_49" data-name="Rectangle 49" width="5.244" height="18.73" rx="0.5" transform="translate(6.788 7.206)" fill="#fff"/>
  <rect id="Rectangle_41" data-name="Rectangle 41" width="5.244" height="5.244" rx="0.5" transform="translate(13.062 0)" fill="#fff"/>
  <rect id="Rectangle_60" data-name="Rectangle 60" width="5.244" height="5.244" rx="0.5" transform="translate(19.592 0)" fill="#fff"/>
  <rect id="Rectangle_64" data-name="Rectangle 64" width="5.244" height="5.244" rx="0.5" transform="translate(26.123 0)" fill="#fff"/>
  <rect id="Rectangle_68" data-name="Rectangle 68" width="5.244" height="5.244" rx="0.5" transform="translate(32.397 0)" fill="#fff"/>
  <rect id="Rectangle_72" data-name="Rectangle 72" width="5.244" height="5.244" rx="0.5" transform="translate(39.185 0)" fill="#fff"/>
  <rect id="Rectangle_48" data-name="Rectangle 48" width="5.244" height="18.73" rx="0.5" transform="translate(13.062 7.206)" fill="#fff"/>
  <rect id="Rectangle_61" data-name="Rectangle 61" width="5.244" height="18.73" rx="0.5" transform="translate(19.592 7.206)" fill="#fff"/>
  <rect id="Rectangle_65" data-name="Rectangle 65" width="5.244" height="18.73" rx="0.5" transform="translate(26.123 7.206)" fill="#fff"/>
  <rect id="Rectangle_69" data-name="Rectangle 69" width="5.244" height="18.73" rx="0.5" transform="translate(32.397 7.206)" fill="#fff"/>
  <rect id="Rectangle_73" data-name="Rectangle 73" width="5.244" height="18.73" rx="0.5" transform="translate(39.185 7.206)" fill="#fff"/>
</svg>
