<svg id="calendar" xmlns="http://www.w3.org/2000/svg" width="199.46" height="198.663" viewBox="0 0 199.46 198.663">
  <path id="Path_612" data-name="Path 612" d="M1709.068-12.708v-1.442c0-3.353.022-6.706-.007-10.059a7.658,7.658,0,0,1,1.83-5.16,7.3,7.3,0,0,1,9.81-1.174,7.061,7.061,0,0,1,3.127,5.847c.039,3.509.018,7.018.023,10.527,0,.424,0,.848,0,1.174a2.044,2.044,0,0,0,.161.184.188.188,0,0,0,.1.05q36.96.028,73.92.05c.189,0,.377-.031.656-.055.023-.41.062-.786.062-1.161.005-3-.013-6,.012-9.007a20.862,20.862,0,0,1,.2-2.907,7.5,7.5,0,0,1,6.549-6.059,7.508,7.508,0,0,1,8.134,7.431c.027,3.431.007,6.863.008,10.294v1.422c.509.016.959.043,1.409.043,8.539,0,17.078-.011,25.617.007a20.324,20.324,0,0,1,11,3.032A19.763,19.763,0,0,1,1860.413,2.3a21.872,21.872,0,0,1,.665,5.784q.023,69.188,0,138.376a19.765,19.765,0,0,1-5.777,14.362,18.641,18.641,0,0,1-11.149,5.637,30.392,30.392,0,0,1-3.721.257q-79.073.019-158.145.016a20.41,20.41,0,0,1-7.451-1.165,20.129,20.129,0,0,1-13.182-18.97q-.036-69.364-.023-138.728a20.4,20.4,0,0,1,4.222-12.841,19.165,19.165,0,0,1,10.609-7.019,23.02,23.02,0,0,1,5.894-.722q12.633.013,25.266,0Zm52.172,169.6q39.3,0,78.6-.008a17.913,17.913,0,0,0,3.023-.21,9.681,9.681,0,0,0,6.885-4.735,10.219,10.219,0,0,0,1.421-5.455q-.02-49.356-.011-98.712c0-.429,0-.859-.033-1.285a9.858,9.858,0,0,0-5.069-8.056,11.022,11.022,0,0,0-5.833-1.361q-78.887.008-157.775.012a13.458,13.458,0,0,0-2.44.187,9.8,9.8,0,0,0-7.94,6.739,12.869,12.869,0,0,0-.588,4.373q-.008,48.478,0,96.958a20.348,20.348,0,0,0,.172,2.91,9.7,9.7,0,0,0,4.93,7.262,11.2,11.2,0,0,0,5.831,1.388Q1721.825,156.883,1761.24,156.891ZM1723.907-10.684c-.029.412-.066.717-.069,1.022-.017,1.871.031,3.745-.052,5.613A6.717,6.717,0,0,1,1721.3.918a7.22,7.22,0,0,1-7,1.461,7.105,7.105,0,0,1-5.179-6.6c-.06-1.752-.023-3.508-.037-5.262,0-.369-.037-.739-.059-1.151-4.1,1.807-8.578,8.031-7.4,15.212A14.922,14.922,0,0,0,1715.9,17.221,14.978,14.978,0,0,0,1731.192,5.1C1732.517-1.535,1728.9-8.147,1723.907-10.684Zm89.729.032v1.2c0,1.48.017,2.961-.009,4.441a10.458,10.458,0,0,1-.187,1.852,7.1,7.1,0,0,1-6.1,5.789,7.265,7.265,0,0,1-7.585-3.692,9.274,9.274,0,0,1-.973-4.391c-.038-1.479,0-2.961-.015-4.441a4.346,4.346,0,0,0-.137-.742c-4.786,2.474-8.871,9.4-6.935,16.707A15.015,15.015,0,0,0,1807.171,17.2a14.9,14.9,0,0,0,13.958-13.11C1822.053-3,1817.654-8.861,1813.636-10.652Z" transform="translate(-1661.632 31.93)" fill="#070860"/>
  <path id="Path_625" data-name="Path 625" d="M1719.531,242.566c1.323,0,2.647.02,3.97,0a4.882,4.882,0,0,1,4.853,4.929c-.005,2.491.015,4.983,0,7.474a4.849,4.849,0,0,1-4.859,4.922c-2.686.022-5.372.052-8.057-.012a4.788,4.788,0,0,1-4.786-4.861c-.04-2.491,0-4.983-.012-7.474a4.9,4.9,0,0,1,4.925-4.982c1.323.026,2.647,0,3.97,0Z" transform="translate(-1689.108 -111.32)" fill="#070860"/>
  <path id="Path_686" data-name="Path 686" d="M1719.531,242.566c1.323,0,2.647.02,3.97,0a4.882,4.882,0,0,1,4.853,4.929c-.005,2.491.015,4.983,0,7.474a4.849,4.849,0,0,1-4.859,4.922c-2.686.022-5.372.052-8.057-.012a4.788,4.788,0,0,1-4.786-4.861c-.04-2.491,0-4.983-.012-7.474a4.9,4.9,0,0,1,4.925-4.982c1.323.026,2.647,0,3.97,0Z" transform="translate(-1689.108 -134.247)" fill="#070860"/>
  <path id="Path_700" data-name="Path 700" d="M1719.531,242.566c1.323,0,2.647.02,3.97,0a4.882,4.882,0,0,1,4.853,4.929c-.005,2.491.015,4.983,0,7.474a4.849,4.849,0,0,1-4.859,4.922c-2.686.022-5.372.052-8.057-.012a4.788,4.788,0,0,1-4.786-4.861c-.04-2.491,0-4.983-.012-7.474a4.9,4.9,0,0,1,4.925-4.982c1.323.026,2.647,0,3.97,0Z" transform="translate(-1689.108 -88.394)" fill="#070860"/>
  <path id="Path_629" data-name="Path 629" d="M1954.991,242.559c1.325,0,2.651.019,3.976,0a4.915,4.915,0,0,1,4.861,4.934c-.057,2.494-.034,4.99,0,7.484a4.851,4.851,0,0,1-4.773,4.9q-4.092.067-8.186,0a4.758,4.758,0,0,1-4.728-4.7c-.115-2.607-.1-5.225-.008-7.833a4.825,4.825,0,0,1,5-4.792c1.286.033,2.573.006,3.859.006Z" transform="translate(-1808.766 -111.314)" fill="#070860"/>
  <path id="Path_691" data-name="Path 691" d="M1954.991,242.559c1.325,0,2.651.019,3.976,0a4.915,4.915,0,0,1,4.861,4.934c-.057,2.494-.034,4.99,0,7.484a4.851,4.851,0,0,1-4.773,4.9q-4.092.067-8.186,0a4.758,4.758,0,0,1-4.728-4.7c-.115-2.607-.1-5.225-.008-7.833a4.825,4.825,0,0,1,5-4.792c1.286.033,2.573.006,3.859.006Z" transform="translate(-1808.766 -134.24)" fill="#070860"/>
  <path id="Path_698" data-name="Path 698" d="M1954.991,242.559c1.325,0,2.651.019,3.976,0a4.915,4.915,0,0,1,4.861,4.934c-.057,2.494-.034,4.99,0,7.484a4.851,4.851,0,0,1-4.773,4.9q-4.092.067-8.186,0a4.758,4.758,0,0,1-4.728-4.7c-.115-2.607-.1-5.225-.008-7.833a4.825,4.825,0,0,1,5-4.792c1.286.033,2.573.006,3.859.006Z" transform="translate(-1808.766 -157.167)" fill="#070860"/>
  <path id="Path_631" data-name="Path 631" d="M1814.427,259.887h-3.859a4.9,4.9,0,0,1-4.966-5.071c.019-2.417.053-4.835-.009-7.25a4.938,4.938,0,0,1,4.9-5.018c2.611.032,5.224.036,7.835-.006a4.86,4.86,0,0,1,4.968,4.833c.068,2.61.076,5.225-.007,7.834a4.789,4.789,0,0,1-4.658,4.651c-1.4.059-2.806.01-4.21.01Z" transform="translate(-1737.767 -111.312)" fill="#070860"/>
  <path id="Path_688" data-name="Path 688" d="M1814.427,259.887h-3.859a4.9,4.9,0,0,1-4.966-5.071c.019-2.417.053-4.835-.009-7.25a4.938,4.938,0,0,1,4.9-5.018c2.611.032,5.224.036,7.835-.006a4.86,4.86,0,0,1,4.968,4.833c.068,2.61.076,5.225-.007,7.834a4.789,4.789,0,0,1-4.658,4.651c-1.4.059-2.806.01-4.21.01Z" transform="translate(-1737.767 -134.239)" fill="#070860"/>
  <path id="Path_695" data-name="Path 695" d="M1814.427,259.887h-3.859a4.9,4.9,0,0,1-4.966-5.071c.019-2.417.053-4.835-.009-7.25a4.938,4.938,0,0,1,4.9-5.018c2.611.032,5.224.036,7.835-.006a4.86,4.86,0,0,1,4.968,4.833c.068,2.61.076,5.225-.007,7.834a4.789,4.789,0,0,1-4.658,4.651c-1.4.059-2.806.01-4.21.01Z" transform="translate(-1737.767 -157.165)" fill="#070860"/>
  <path id="Path_702" data-name="Path 702" d="M1814.427,259.887h-3.859a4.9,4.9,0,0,1-4.966-5.071c.019-2.417.053-4.835-.009-7.25a4.938,4.938,0,0,1,4.9-5.018c2.611.032,5.224.036,7.835-.006a4.86,4.86,0,0,1,4.968,4.833c.068,2.61.076,5.225-.007,7.834a4.789,4.789,0,0,1-4.658,4.651c-1.4.059-2.806.01-4.21.01Z" transform="translate(-1737.767 -88.386)" fill="#070860"/>
  <path id="Path_632" data-name="Path 632" d="M1861.853,259.9q-1.871,0-3.742,0a4.939,4.939,0,0,1-5.031-5.135c.076-2.414.019-4.833.017-7.25a4.831,4.831,0,0,1,1.312-3.4,4.586,4.586,0,0,1,3.52-1.547c2.651,0,5.3.015,7.952-.01a4.817,4.817,0,0,1,4.9,4.774c.093,2.647.124,5.306-.012,7.949a4.752,4.752,0,0,1-4.706,4.6c-1.4.038-2.806.007-4.21.007Z" transform="translate(-1762.098 -111.32)" fill="#070860"/>
  <path id="Path_689" data-name="Path 689" d="M1861.853,259.9q-1.871,0-3.742,0a4.939,4.939,0,0,1-5.031-5.135c.076-2.414.019-4.833.017-7.25a4.831,4.831,0,0,1,1.312-3.4,4.586,4.586,0,0,1,3.52-1.547c2.651,0,5.3.015,7.952-.01a4.817,4.817,0,0,1,4.9,4.774c.093,2.647.124,5.306-.012,7.949a4.752,4.752,0,0,1-4.706,4.6c-1.4.038-2.806.007-4.21.007Z" transform="translate(-1762.098 -134.247)" fill="#070860"/>
  <path id="Path_696" data-name="Path 696" d="M1861.853,259.9q-1.871,0-3.742,0a4.939,4.939,0,0,1-5.031-5.135c.076-2.414.019-4.833.017-7.25a4.831,4.831,0,0,1,1.312-3.4,4.586,4.586,0,0,1,3.52-1.547c2.651,0,5.3.015,7.952-.01a4.817,4.817,0,0,1,4.9,4.774c.093,2.647.124,5.306-.012,7.949a4.752,4.752,0,0,1-4.706,4.6c-1.4.038-2.806.007-4.21.007Z" transform="translate(-1762.098 -157.173)" fill="#070860"/>
  <path id="Path_703" data-name="Path 703" d="M1861.853,259.9q-1.871,0-3.742,0a4.939,4.939,0,0,1-5.031-5.135c.076-2.414.019-4.833.017-7.25a4.831,4.831,0,0,1,1.312-3.4,4.586,4.586,0,0,1,3.52-1.547c2.651,0,5.3.015,7.952-.01a4.817,4.817,0,0,1,4.9,4.774c.093,2.647.124,5.306-.012,7.949a4.752,4.752,0,0,1-4.706,4.6c-1.4.038-2.806.007-4.21.007Z" transform="translate(-1762.098 -88.394)" fill="#070860"/>
  <path id="Path_633" data-name="Path 633" d="M1909.426,242.553c1.286,0,2.573.026,3.859-.005a4.867,4.867,0,0,1,5.013,4.914c.066,2.532.1,5.071-.009,7.6a4.809,4.809,0,0,1-4.865,4.818c-2.65.027-5.3.032-7.951,0a4.858,4.858,0,0,1-4.88-4.913c.038-2.494.015-4.99.009-7.484a4.847,4.847,0,0,1,1.245-3.307,4.312,4.312,0,0,1,3.254-1.589c1.441-.033,2.884-.007,4.326-.007Z" transform="translate(-1786.446 -111.315)" fill="#070860"/>
  <path id="Path_690" data-name="Path 690" d="M1909.426,242.553c1.286,0,2.573.026,3.859-.005a4.867,4.867,0,0,1,5.013,4.914c.066,2.532.1,5.071-.009,7.6a4.809,4.809,0,0,1-4.865,4.818c-2.65.027-5.3.032-7.951,0a4.858,4.858,0,0,1-4.88-4.913c.038-2.494.015-4.99.009-7.484a4.847,4.847,0,0,1,1.245-3.307,4.312,4.312,0,0,1,3.254-1.589c1.441-.033,2.884-.007,4.326-.007Z" transform="translate(-1786.446 -134.241)" fill="#070860"/>
  <path id="Path_697" data-name="Path 697" d="M1909.426,242.553c1.286,0,2.573.026,3.859-.005a4.867,4.867,0,0,1,5.013,4.914c.066,2.532.1,5.071-.009,7.6a4.809,4.809,0,0,1-4.865,4.818c-2.65.027-5.3.032-7.951,0a4.858,4.858,0,0,1-4.88-4.913c.038-2.494.015-4.99.009-7.484a4.847,4.847,0,0,1,1.245-3.307,4.312,4.312,0,0,1,3.254-1.589c1.441-.033,2.884-.007,4.326-.007Z" transform="translate(-1786.446 -157.168)" fill="#070860"/>
  <path id="Path_704" data-name="Path 704" d="M1909.426,242.553c1.286,0,2.573.026,3.859-.005a4.867,4.867,0,0,1,5.013,4.914c.066,2.532.1,5.071-.009,7.6a4.809,4.809,0,0,1-4.865,4.818c-2.65.027-5.3.032-7.951,0a4.858,4.858,0,0,1-4.88-4.913c.038-2.494.015-4.99.009-7.484a4.847,4.847,0,0,1,1.245-3.307,4.312,4.312,0,0,1,3.254-1.589c1.441-.033,2.884-.007,4.326-.007Z" transform="translate(-1786.446 -88.388)" fill="#070860"/>
  <path id="Path_634" data-name="Path 634" d="M1768.913,242.56c1.325,0,2.652-.036,3.975.007a4.624,4.624,0,0,1,4.727,4.256,13.162,13.162,0,0,1,.141,1.739q.026,2.923,0,5.847a6.206,6.206,0,0,1-.657,2.931,4.351,4.351,0,0,1-3.825,2.494c-2.92.091-5.847.1-8.766.005a4.639,4.639,0,0,1-4.427-4.574q-.092-4.09.007-8.184a4.624,4.624,0,0,1,4.38-4.483c1.476-.083,2.961-.015,4.442-.015Z" transform="translate(-1715.4 -111.315)" fill="#070860"/>
  <path id="Path_687" data-name="Path 687" d="M1768.913,242.56c1.325,0,2.652-.036,3.975.007a4.624,4.624,0,0,1,4.727,4.256,13.162,13.162,0,0,1,.141,1.739q.026,2.923,0,5.847a6.206,6.206,0,0,1-.657,2.931,4.351,4.351,0,0,1-3.825,2.494c-2.92.091-5.847.1-8.766.005a4.639,4.639,0,0,1-4.427-4.574q-.092-4.09.007-8.184a4.624,4.624,0,0,1,4.38-4.483c1.476-.083,2.961-.015,4.442-.015Z" transform="translate(-1715.4 -134.241)" fill="#070860"/>
  <path id="Path_701" data-name="Path 701" d="M1768.913,242.56c1.325,0,2.652-.036,3.975.007a4.624,4.624,0,0,1,4.727,4.256,13.162,13.162,0,0,1,.141,1.739q.026,2.923,0,5.847a6.206,6.206,0,0,1-.657,2.931,4.351,4.351,0,0,1-3.825,2.494c-2.92.091-5.847.1-8.766.005a4.639,4.639,0,0,1-4.427-4.574q-.092-4.09.007-8.184a4.624,4.624,0,0,1,4.38-4.483c1.476-.083,2.961-.015,4.442-.015Z" transform="translate(-1715.4 -88.388)" fill="#070860"/>
  <path id="Path_635" data-name="Path 635" d="M2004.342,259.9c-1.245,0-2.491,0-3.736,0a4.924,4.924,0,0,1-5.047-5.1c.071-2.45.021-4.9.019-7.356a4.778,4.778,0,0,1,1.19-3.2,4.3,4.3,0,0,1,3.339-1.648c2.879-.027,5.761-.065,8.639.014a4.549,4.549,0,0,1,4.382,3.948,11.068,11.068,0,0,1,.164,1.734c.019,2.1.04,4.2-.01,6.305a6.736,6.736,0,0,1-.385,2.161,4.519,4.519,0,0,1-4.351,3.118c-1.4.058-2.8.011-4.2.011Z" transform="translate(-1835.106 -111.321)" fill="#070860"/>
  <path id="Path_692" data-name="Path 692" d="M2004.342,259.9c-1.245,0-2.491,0-3.736,0a4.924,4.924,0,0,1-5.047-5.1c.071-2.45.021-4.9.019-7.356a4.778,4.778,0,0,1,1.19-3.2,4.3,4.3,0,0,1,3.339-1.648c2.879-.027,5.761-.065,8.639.014a4.549,4.549,0,0,1,4.382,3.948,11.068,11.068,0,0,1,.164,1.734c.019,2.1.04,4.2-.01,6.305a6.736,6.736,0,0,1-.385,2.161,4.519,4.519,0,0,1-4.351,3.118c-1.4.058-2.8.011-4.2.011Z" transform="translate(-1835.106 -134.248)" fill="#070860"/>
  <path id="Path_699" data-name="Path 699" d="M2004.342,259.9c-1.245,0-2.491,0-3.736,0a4.924,4.924,0,0,1-5.047-5.1c.071-2.45.021-4.9.019-7.356a4.778,4.778,0,0,1,1.19-3.2,4.3,4.3,0,0,1,3.339-1.648c2.879-.027,5.761-.065,8.639.014a4.549,4.549,0,0,1,4.382,3.948,11.068,11.068,0,0,1,.164,1.734c.019,2.1.04,4.2-.01,6.305a6.736,6.736,0,0,1-.385,2.161,4.519,4.519,0,0,1-4.351,3.118c-1.4.058-2.8.011-4.2.011Z" transform="translate(-1835.106 -157.174)" fill="#070860"/>
</svg>
