<svg id="clock" xmlns="http://www.w3.org/2000/svg" width="130.101" height="130.114" viewBox="0 0 130.101 130.114">
  <path id="Path_602" data-name="Path 602" d="M837.964,106.973c-17.674-.23-33.045-6.232-45.683-18.683C778.512,74.726,772.069,58.1,772.886,38.852a62.461,62.461,0,0,1,18.68-42.617c13.584-13.652,30.193-20.15,49.383-19.3a62.556,62.556,0,0,1,42.626,18.7c13.64,13.628,20.166,30.271,19.261,49.516-.772,16.414-7.143,30.59-18.628,42.424C872.629,99.515,855.411,107.236,837.964,106.973Zm-.2-5.6c33.046.258,59.529-26.69,59.551-59.274a59.45,59.45,0,1,0-118.9-.326c.045,16.652,5.907,30.945,17.717,42.62C807.619,95.741,821.656,101.2,837.767,101.369Z" transform="translate(-772.817 23.134)" fill="#070860"/>
  <path id="Path_603" data-name="Path 603" d="M911.464,67.627c0,3.7.06,7.407-.028,11.108a4.988,4.988,0,0,0,1.65,3.92q13.768,13.684,27.467,27.437a12.554,12.554,0,0,1,1.376,1.583,2.462,2.462,0,0,1-.13,3.125,2.487,2.487,0,0,1-3.238.726,7.117,7.117,0,0,1-1.655-1.271c-2.609-2.572-5.19-5.173-7.783-7.762Q918.49,95.874,907.859,85.255a12.354,12.354,0,0,1-1.161-1.309,3.8,3.8,0,0,1-.787-2.28c0-.35-.019-.7-.019-1.052q.006-12.22.014-24.44c0-.389-.011-.781.023-1.168a2.9,2.9,0,0,1,2.448-2.6,2.709,2.709,0,0,1,2.856,1.928,5.467,5.467,0,0,1,.223,1.6c.018,3.9.01,7.8.01,11.694Z" transform="translate(-843.628 -17.05)" fill="#070860"/>
  <path id="Path_604" data-name="Path 604" d="M806.578,115.5a8.922,8.922,0,0,1-1.152-.069,2.733,2.733,0,0,1-.248-5.366,6.159,6.159,0,0,1,2.878.017,2.767,2.767,0,0,1-.3,5.348A11.773,11.773,0,0,1,806.578,115.5Z" transform="translate(-788.914 -47.654)" fill="#070860"/>
  <path id="Path_605" data-name="Path 605" d="M1009.3,115.53a12.9,12.9,0,0,1-2.1-.542,2.343,2.343,0,0,1-1.347-2.382,2.445,2.445,0,0,1,1.372-2.382,4.7,4.7,0,0,1,3.847-.131,2.7,2.7,0,0,1,1.558,3.181,2.608,2.608,0,0,1-2.361,2.069c-.309.034-.621.035-.932.051Z" transform="translate(-896.818 -47.572)" fill="#070860"/>
  <path id="Path_606" data-name="Path 606" d="M905.882,10.591a8.932,8.932,0,0,1,.112-1.276,2.766,2.766,0,0,1,5.206-.361,5.006,5.006,0,0,1,.018,3.434,2.7,2.7,0,0,1-3.011,1.681,2.559,2.559,0,0,1-2.265-2.31,10.339,10.339,0,0,1-.007-1.167Z" transform="translate(-843.622 6.947)" fill="#070860"/>
  <path id="Path_607" data-name="Path 607" d="M905.873,213.3c.019-.349.011-.7.061-1.045a2.688,2.688,0,0,1,2.614-2.36,2.547,2.547,0,0,1,2.715,2.05,7.666,7.666,0,0,1,.048,2.638,2.693,2.693,0,0,1-2.848,2.228,2.8,2.8,0,0,1-2.557-2.7c-.018-.27,0-.543,0-.814Z" transform="translate(-843.618 -100.859)" fill="#070860"/>
  <path id="Path_608" data-name="Path 608" d="M833.336,184.162c0-1.389,2.124-3.672,3.514-3.786a2.764,2.764,0,0,1,2.816,3.58,4.543,4.543,0,0,1-2.553,2.74A2.748,2.748,0,0,1,833.336,184.162Z" transform="translate(-805.02 -85.151)" fill="#070860"/>
  <path id="Path_609" data-name="Path 609" d="M979.105,43.911a2.906,2.906,0,0,1-2.5-1.749,2.312,2.312,0,0,1,.33-2.625,11.754,11.754,0,0,1,1.739-1.717,2.381,2.381,0,0,1,3.2.188,2.527,2.527,0,0,1,.732,3.143,5.708,5.708,0,0,1-2.195,2.366A5.509,5.509,0,0,1,979.105,43.911Z" transform="translate(-881.116 -9.016)" fill="#070860"/>
  <path id="Path_610" data-name="Path 610" d="M836.9,44.053A6.188,6.188,0,0,1,835.6,43.4c-.622-.519-1.143-1.157-1.732-1.717a2.678,2.678,0,0,1,3.024-4.074,4.969,4.969,0,0,1,2.734,2.565C840.449,41.86,838.942,43.958,836.9,44.053Z" transform="translate(-805.034 -9.098)" fill="#070860"/>
</svg>
