<svg xmlns="http://www.w3.org/2000/svg" width="107.273" height="115.83" viewBox="0 0 107.273 115.83">
  <g id="Group_291" data-name="Group 291" transform="translate(-10.455 -6.803)">
    <g id="Group_249" data-name="Group 249" transform="translate(11.057 37.631)">
      <g id="qdMJRC.tif">
        <g id="Group_248" data-name="Group 248">
          <path id="Path_729" data-name="Path 729" d="M123.467,131.171c-.125-.468-.23-.9-.358-1.325q-.818-2.738-1.65-5.473a2.845,2.845,0,0,1-.123-.355,1.188,1.188,0,0,1,1.028-1.371,1.683,1.683,0,0,1,1.578,1.016,2.685,2.685,0,0,1,.164.6q.764,4.027,1.519,8.053c.036.194.046.389.084.724-1.381-.136-2.685-.259-3.988-.394q-3.5-.361-7-.738a5.984,5.984,0,0,1-1.2-.221,1.247,1.247,0,0,1-.974-1.283c.1-.538.631-.7,1.19-.7a12.223,12.223,0,0,1,1.967.2C118.219,130.3,120.726,130.721,123.467,131.171Z" transform="translate(-26.558 -55.171)" fill="#fff" stroke="#fff" stroke-miterlimit="10" stroke-width="0.75"/>
          <path id="Path_730" data-name="Path 730" d="M63.818,45.354c-1.1,2.049-2.131,3.934-3.134,5.827a2.194,2.194,0,0,1-1.838,1.473c-1.266-.643-1.472-1.115-.823-2.087.962-1.44,1.967-2.858,2.952-4.286.725-1.052,1.448-2.106,2.249-3.273.8.535,1.542,1.024,2.271,1.529,2.1,1.458,4.213,2.909,6.284,4.4a3.976,3.976,0,0,1,1.084,1.184c.263.447.045.88-.446,1.146A1.386,1.386,0,0,1,71,51.151a12.14,12.14,0,0,1-1.278-.933C67.82,48.662,65.93,47.1,63.818,45.354Z" transform="translate(-18.176 -43.008)" fill="#fff" stroke="#fff" stroke-miterlimit="10" stroke-width="0.75"/>
          <path id="Path_731" data-name="Path 731" d="M11.057,85.148c3.17-1.434,6.292-2.872,9.45-4.263,1.183-.521,1.739-.33,2.64.721-.015.757-.742,1.035-1.456,1.294-2.233.812-4.477,1.6-6.717,2.4-.263.094-.528.186-.969.342.9.7,1.689,1.341,2.511,1.955,1.343,1,2.713,1.981,4.056,2.983a3.506,3.506,0,0,1,.8.761c.256.369.441.848-.046,1.094a2.624,2.624,0,0,1-1.37.18,2.176,2.176,0,0,1-1.033-.525c-2.5-2.148-4.984-4.312-7.466-6.475A4.125,4.125,0,0,1,11.057,85.148Z" transform="translate(-11.057 -48.751)" fill="#fff" stroke="#fff" stroke-miterlimit="10" stroke-width="0.75"/>
          <path id="Path_732" data-name="Path 732" d="M127.336,81.4a6.146,6.146,0,0,1,.477-1.562c1.143-1.85,2.364-3.664,3.551-5.494a3.036,3.036,0,0,0,.182-.475c-.552-.106-1.068-.231-1.589-.3-2.124-.272-4.251-.517-6.374-.793a6.354,6.354,0,0,1-1.774-.379c-.374-.171-.786-.643-.77-.942s.458-.689.846-.817a3.246,3.246,0,0,1,1.482.011c3.455.668,6.9,1.367,10.353,2.06a2,2,0,0,1,.369.191,4.255,4.255,0,0,1-.234.835q-1.753,3.541-3.541,7.069C129.734,81.947,129.086,82.107,127.336,81.4Z" transform="translate(-27.856 -47.217)" fill="#fff" stroke="#fff" stroke-miterlimit="10" stroke-width="0.75"/>
          <path id="Path_733" data-name="Path 733" d="M49.9,140.9c-.18-.455-.35-.831-.479-1.214-.767-2.293-1.534-4.586-2.277-6.883a5.474,5.474,0,0,1-.276-1.432c-.025-.541.36-.9,1.029-.99a1.3,1.3,0,0,1,1.418.77,4.526,4.526,0,0,1,.352,1.06c.441,2,.864,4,1.3,6a3.576,3.576,0,0,0,.261.567c.715-.275,1.375-.509,2.011-.777,1.819-.765,3.628-1.545,5.443-2.316a3.154,3.154,0,0,1,.668-.238,2.043,2.043,0,0,1,1.782.527c.295.441.1.962-.535,1.338a4.635,4.635,0,0,1-.9.391q-4.43,1.469-8.87,2.922C50.565,140.712,50.291,140.784,49.9,140.9Z" transform="translate(-16.527 -56.351)" fill="#fff" stroke="#fff" stroke-miterlimit="10" stroke-width="0.75"/>
          <path id="Path_734" data-name="Path 734" d="M40.836,77.961l1.787,4.96-1.268.9c-1.052-1.439-.714-2.926-1.531-4.341-1.071.124-2.136.258-3.206.367-.991.1-1.983.2-2.984.258-1.225.067-1.7-.246-2.223-1.448a2.737,2.737,0,0,1,.923-.395C35.083,78.141,37.84,78.062,40.836,77.961Z" transform="translate(-14.166 -48.347)" fill="#fff" stroke="#fff" stroke-miterlimit="10" stroke-width="0.75"/>
          <path id="Path_735" data-name="Path 735" d="M70.385,132.885c-1.5-.866-1.658-1.68-.618-2.521,1.194-.962,2.451-1.876,3.679-2.813.136-.1.258-.219.482-.412l-3.852-3.078c.872-.724,1.378-.758,2.158-.094,1.285,1.1,2.518,2.23,3.871,3.435C74.224,129.3,72.413,131.128,70.385,132.885Z" transform="translate(-19.923 -55.301)" fill="#fff" stroke="#fff" stroke-miterlimit="10" stroke-width="0.75"/>
          <path id="Path_736" data-name="Path 736" d="M80.772,56.745c1.717,2.172,2.613,4.538,4.113,6.775a5.067,5.067,0,0,1-.832.635c-1.245.607-2.5,1.206-3.785,1.763-.869.376-1.218.25-2.062-.662,1.277-.883,3.127-1.046,4.529-1.973-.724-.993-1.461-1.982-2.169-2.981A13.531,13.531,0,0,1,79.5,58.647C79.033,57.718,79.349,57.221,80.772,56.745Z" transform="translate(-21.313 -45.106)" fill="#fff" stroke="#fff" stroke-miterlimit="10" stroke-width="0.75"/>
          <path id="Path_737" data-name="Path 737" d="M28.755,98.747c.494-1.158,1.458-1.432,2.8-.84q2.542,1.125,5.08,2.253a1.588,1.588,0,0,0,.358.047c.754-1.14,1.517-2.3,2.292-3.448.033-.048.183-.041.279-.06.947.691,1.093.967.628,1.622-.858,1.211-1.777,2.393-2.654,3.565A47.656,47.656,0,0,1,28.755,98.747Z" transform="translate(-13.76 -51.209)" fill="#fff" stroke="#fff" stroke-miterlimit="10" stroke-width="0.75"/>
          <path id="Path_738" data-name="Path 738" d="M117.339,92.061c.627-.521,1.217-1.025,1.826-1.514.819-.657,1.618-1.333,2.492-1.942,1-.7,1.919-.512,2.793.636-2.043,1.567-4.355,2.954-6.623,4.542a15.966,15.966,0,0,1-1.419-.75c-1.046-.7-2.06-1.422-3.082-2.139-.859-.6-.886-.941-.092-1.74C114.864,89.827,115.677,91.282,117.339,92.061Z" transform="translate(-26.576 -49.91)" fill="#fff" stroke="#fff" stroke-miterlimit="10" stroke-width="0.75"/>
          <path id="Path_739" data-name="Path 739" d="M120.63,115.509a2.079,2.079,0,0,1-2.972-.685c-.88-1.223-1.661-2.488-2.487-3.734-.117-.176-.238-.352-.427-.631l-4.507,1.684c-.776-.885-.741-1.3.239-1.625,1.661-.557,3.364-1.045,5.015-1.551C117.527,110.893,120.477,114.665,120.63,115.509Z" transform="translate(-26.123 -53.083)" fill="#fff" stroke="#fff" stroke-miterlimit="10" stroke-width="0.75"/>
          <path id="Path_740" data-name="Path 740" d="M47.739,116.034a9.177,9.177,0,0,1,1.287-.078c1.419.12,2.839.257,4.255.428,1.074.13,1.221.286,1.513,1.39-1.794.312-3.558-.713-5.276-.492-.188,1.142-.362,2.238-.55,3.331a12.1,12.1,0,0,1-.352,1.752c-.284.861-.855,1.056-2.333.818a3.145,3.145,0,0,1-.08-.99C46.68,120.177,47.2,118.17,47.739,116.034Z" transform="translate(-16.422 -54.149)" fill="#fff" stroke="#fff" stroke-miterlimit="10" stroke-width="0.75"/>
          <path id="Path_741" data-name="Path 741" d="M95.11,125.392c.668-1.4,1.3-2.792,1.994-4.155.23-.45.646-.492,1.829-.354-.039,1.472-1.54,2.459-1.822,3.937,1.086.437,2.151.857,3.206,1.292.881.364,1.782.707,2.618,1.134,1.133.577,1.26,1.226.519,2.1C102.453,129.228,97.574,126.934,95.11,125.392Z" transform="translate(-23.895 -54.892)" fill="#fff" stroke="#fff" stroke-miterlimit="10" stroke-width="0.75"/>
          <path id="Path_742" data-name="Path 742" d="M105.3,77.045c-1.478-.072-1.79-.248-1.944-1.084-.262-1.431-.469-2.865-.711-4.381,3.034-.523,5.935-1.118,8.878-1.471.788,1.192.347,1.994-1.131,2.163-1.68.192-3.386.291-5.079.433-.294.025-.585.058-1.007.1Z" transform="translate(-25.046 -47.147)" fill="#fff" stroke="#fff" stroke-miterlimit="10" stroke-width="0.75"/>
          <path id="Path_743" data-name="Path 743" d="M54.664,66.814c.121-2.566.02-4.951.334-7.263,1.616-.075,2.416.512,2.3,1.632-.135,1.264-.4,2.511-.592,3.768-.053.343-.072.691-.107,1.037,1.733.619,3.578.428,5.222,1.034-.341.951-.631,1.173-1.52,1C58.464,67.665,56.645,67.242,54.664,66.814Z" transform="translate(-17.718 -45.534)" fill="#fff" stroke="#fff" stroke-miterlimit="10" stroke-width="0.75"/>
          <path id="Path_744" data-name="Path 744" d="M117.917,79.542l.47,0c-.151.919-.291,1.837-.472,2.747-.014.071-.305.091-.468.134l-.064-.1.108.079-2.134,1.049c-2.612-.826-3.465-1.936-2.883-4.027l2.849-1.045,2.628,1.2-.125.043Zm-.656,2.123-.064-.1.108.078.055.1Zm-.593.483.062.048.02-.056Zm.907-1.054-.062-.048-.02.056Zm.01-.447.057-.045-.072-.02Zm-.88-.231-.056.045.072.021Zm-.9-.3.056-.045-.071-.02Zm-1.212-.2.056-.045-.072-.02Zm3.068.262.056-.045-.071-.021Zm-.606-.1.056-.045-.071-.02Zm-.578-.181-.056.045.072.021Zm-1.279-.173.062.048.02-.055Zm-1.75-.325-.056.045.071.02Zm2.462.162-.056.045.072.02Zm-1.279-.173.061.048.02-.056Zm-.5-.07-.062-.048-.02.055Zm3,.287.056-.045-.072-.02Zm-.606-.1.056-.046-.072-.02Zm-1.212-.2.057-.046-.072-.02Zm.674-.219-.056.046.071.02Zm-1.279-.172.062.047.02-.055Zm.684-.082.056-.045-.071-.02Z" transform="translate(-26.521 -48.41)" fill="#fff" stroke="#fff" stroke-miterlimit="10" stroke-width="0.75"/>
          <path id="Path_745" data-name="Path 745" d="M31.226,89.32l-.763-.706,1.7-1.1.064.1-.108-.079a1.677,1.677,0,0,1,1.849-.6,17.9,17.9,0,0,0,2.083.126c1.723,2.263,1.579,3.386-.629,4.541l-1.392-.387.026.039-.154-.186L33.7,91.2l.037-.029-.308-.05.026.038L33.3,90.97l-.207.127.036-.028-.308-.051.026.039-.155-.186L32.487,91l.037-.029-.559-.564.125-.042L32,90.441l-.8-1.158.357.069.064.1-.108-.079.044-.278.13-.027-.093.064Zm1.781.511.036-.214-.067-.091.114.069-.049.272-.125.043Zm.692-2.315.119-.036-.086.072-.125.042Zm-.715-.258-.056.045.071.021Zm-.078.473-.056.046.072.02Zm-1.054.351.062.047.02-.055Zm.713.128L32.5,88.16l-.02.056Zm-.684.374-.062-.048-.02.055Zm-.684.081-.056.045.071.021Zm1.184.281.056-.045-.072-.021Zm-.05.391-.056.046.072.02Zm-.038.529-.062-.048-.02.056Zm1.475.193-.056.046.072.02Zm-.986.324-.056.046.072.02Zm.578.181.056-.045-.072-.02Zm.673.074-.062-.048-.02.055Zm.5.363.056-.046-.071-.02Z" transform="translate(-14.021 -49.71)" fill="#fff" stroke="#fff" stroke-miterlimit="10" stroke-width="0.75"/>
          <path id="Path_746" data-name="Path 746" d="M67.319,58.935l.567-.539,1.028.545-.051.248c.03.043.058.086.047.069l-.091-.048.057-.3a12.756,12.756,0,0,1,1.556.734,2.223,2.223,0,0,1,.776.857,16.494,16.494,0,0,1,.636,1.8,3.881,3.881,0,0,1-5.559.5c-.175-.785-.348-1.57-.532-2.4l1.608-1.482.064.1Zm2.347,1.129-.119.036.085-.072.125-.043Zm-2.5.075-.049.221-.014.258-.13.031.09-.068.211-.084-.2-.117.059-.278.125-.042Zm3.332.548-.119.036.086-.073.125-.042Zm-3.875,1.4.061.048.02-.055Zm.145-.5-.057.045.072.02Zm.616-.347.062.048.02-.055Zm-.606-.1.062.048.02-.056ZM66.21,60.8l.062.048.019-.055Zm1.621-.014-.057.045.072.02Zm-1.5-.4.057-.045-.072-.02Zm1.621-.014-.061-.048-.02.055Zm.011-.446.056-.046-.072-.02Zm2.49.08-.056.045.072.02Zm-1.817-.3-.056.046.072.02Zm-1.24-.117.056-.045-.072-.02Zm.644-.137.057-.045-.072-.02Zm.107-.554-.057.045.072.02Z" transform="translate(-19.412 -45.358)" fill="#fff" stroke="#fff" stroke-miterlimit="10" stroke-width="0.75"/>
          <path id="Path_747" data-name="Path 747" d="M57.149,126.441l-.259-.559.125-.043-.092.08c-.055-.142-.2-.316-.152-.419.314-.641.673-1.264,1.053-1.959,2.562-.538,3.887,0,5.162,2.208a14.318,14.318,0,0,1-1.078,1.592,2.075,2.075,0,0,1-1.007.513c-.6.152-1.247.212-1.874.31l.026.039-.155-.186-.206.127.036-.029-.532.274L57.115,126.4l.125-.043Zm1.7.964.064.1-.108-.078.053-.269.126-.034-.087.07Zm2.977-1.214.119-.036-.086.072-.125.042Zm-4.418-.829.062.048.02-.055Zm.292.5-.056.045.072.02Zm3.265.574.062.048.02-.055Zm-.606.192.056-.045-.071-.02Zm1.212.2.056-.045-.071-.02Zm-3.713-.416.062.048.02-.055Zm1.856.354.056-.045-.071-.02Zm1.212.2.056-.045-.071-.02Zm-.684.081.062.048.02-.055Zm1.279.173-.056.045.071.021Zm-3.371-.311-.056.045.072.02Zm1.486.33.057-.045-.072-.02Zm1.212.2.056-.045-.072-.02Zm-.645.137.056-.045-.072-.02Zm-.578.11-.062-.047-.02.055Zm-1.317.064.056-.045-.072-.021Z" transform="translate(-18.038 -55.279)" fill="#fff" stroke="#fff" stroke-miterlimit="10" stroke-width="0.75"/>
          <path id="Path_748" data-name="Path 748" d="M111,118.649c.437.357.907.695,1.3,1.08.172.17.186.437.27.661l.047-.018-.225.108.178.174-.039-.031-.039.241.047-.018-.224.108.177.174-.038-.031.1,1.745-3.168-.039-.064-.1.108.079a.583.583,0,0,1-.915-.143l-.047.019.224-.108-.178-.174.041.044-.154-.186-.207.127.038-.029-1.606-.949a2.419,2.419,0,0,1,1.788-2.858,9.385,9.385,0,0,1,2.284-.214c.088,0,.221.247.334.38l-.125.042Zm-.924,3.734.119-.036-.086.072-.125.042Zm1.592-.225.119-.036-.086.072-.125.043Zm.137-.7.064.1-.108-.078-.055-.1Zm-.813-.866.119-.036-.086.073-.125.042Zm.137-.7.064.1-.108-.078.053-.269.125-.034-.087.07Zm-.384-.607.057-.045-.072-.02Zm1.2.646-.062-.047-.02.055Zm-.145.5.056-.045-.071-.021Zm-.049.391-.056.045.071.02Zm-.712.455.056-.045-.072-.021Zm.225.523.057-.045-.072-.021Zm-1.933.411.056-.046-.072-.02Zm1.514.248.056-.045-.071-.02Z" transform="translate(-25.652 -54.509)" fill="#fff" stroke="#fff" stroke-miterlimit="10" stroke-width="0.75"/>
          <path id="Path_749" data-name="Path 749" d="M47.259,107.254c.813-1.634,1.489-3.048,2.227-4.438.206-.389.652-.572,1.423-.2-.065,1.476-1.467,2.5-2.072,3.843,1.712.8,3.9.12,5.5,1.268-.335.709-.928.534-1.475.445C51.1,107.888,49.341,107.6,47.259,107.254Z" transform="translate(-16.587 -52.082)" fill="#fff" stroke="#fff" stroke-miterlimit="10" stroke-width="0.75"/>
          <path id="Path_750" data-name="Path 750" d="M53.4,81.013c-.778-.751-1.176-2.212-1.478-5.361.547.029,1.09.041,1.63.091q1.97.184,3.938.4c.691.078,1.335.228,1.146,1.079-1.847.287-3.643-.591-5.615-.6.351,1.158.667,2.26,1.025,3.355C54.2,80.471,54.211,80.858,53.4,81.013Z" transform="translate(-17.298 -47.994)" fill="#fff" stroke="#fff" stroke-miterlimit="10" stroke-width="0.75"/>
          <path id="Path_751" data-name="Path 751" d="M105.724,102.21a25.873,25.873,0,0,1,4.729-1.886c-1.055-1.334-3.129-1.966-3.88-3.444a1.078,1.078,0,0,1,1.467.086c1.361,1.152,2.688,2.329,4.115,3.575-1.74.781-3.344,1.515-4.967,2.224A1.009,1.009,0,0,1,105.724,102.21Z" transform="translate(-25.517 -51.198)" fill="#fff" stroke="#fff" stroke-miterlimit="10" stroke-width="0.75"/>
          <path id="Path_752" data-name="Path 752" d="M79.86,118.487c1.764.683,2.72,2.094,4.316,3.145a20.487,20.487,0,0,1,1.185-2.115c.4-.565.28-1.542,1.537-1.537.6.422.375.784.145,1.129-.821,1.224-1.656,2.443-2.538,3.742-.352-.192-.656-.325-.912-.5-1.188-.821-2.359-1.656-3.544-2.48C79.474,119.469,79.12,119.069,79.86,118.487Z" transform="translate(-21.502 -54.459)" fill="#fff" stroke="#fff" stroke-miterlimit="10" stroke-width="0.75"/>
          <path id="Path_753" data-name="Path 753" d="M90.88,72.631c-1.818.343-3.091,1.491-4.868,1.686-.561-.58-.368-.912.153-1.092,1.741-.607,3.5-1.181,5.39-1.812.531,1.617,1.036,3.109,1.506,4.607.154.491.037.891-.962.88C91.2,75.589,91.38,74.075,90.88,72.631Z" transform="translate(-22.454 -47.347)" fill="#fff" stroke="#fff" stroke-miterlimit="10" stroke-width="0.75"/>
          <path id="Path_754" data-name="Path 754" d="M103.923,81.652a1.341,1.341,0,0,1,1.834.216l-.471,2.865,3.28,1.244c.421.673.185,1.064-.638,1.382l-3.97-2.122C103.945,83.972,103.934,82.78,103.923,81.652Z" transform="translate(-25.241 -48.871)" fill="#fff" stroke="#fff" stroke-miterlimit="10" stroke-width="0.75"/>
          <path id="Path_755" data-name="Path 755" d="M43.975,87.859l1.752-.531,1.949,3.6-2.787,2.889L43.261,92.9l2.868-2.182Z" transform="translate(-15.976 -49.778)" fill="#fff" stroke="#fff" stroke-miterlimit="10" stroke-width="0.75"/>
          <path id="Path_756" data-name="Path 756" d="M100.81,117.031l-1.853-.305,1.02-3.7,4.566-.9.582,1.449-3.992.347C101.03,114.913,100.933,115.852,100.81,117.031Z" transform="translate(-24.483 -53.566)" fill="#fff" stroke="#fff" stroke-miterlimit="10" stroke-width="0.75"/>
          <path id="Path_757" data-name="Path 757" d="M71.191,71.97,66.8,70.6c-.044-.824-.044-.824.7-1.319l3.348,1.473,2.572-2.164,1.495,1.026Z" transform="translate(-19.569 -46.915)" fill="#fff" stroke="#fff" stroke-miterlimit="10" stroke-width="0.75"/>
          <path id="Path_758" data-name="Path 758" d="M65,116.675l2.658,3.034c-.167.635-.552.894-1.478.752l-1.862-2.71-3.862.485-.237-1.49Z" transform="translate(-18.566 -54.26)" fill="#fff" stroke="#fff" stroke-miterlimit="10" stroke-width="0.75"/>
          <path id="Path_759" data-name="Path 759" d="M92.29,83.953c.108-.652.2-1.394.358-2.123.141-.657.17-.652,1.281-.829a13.672,13.672,0,0,1-.874,3.938c-1.2-.383-2.481-.022-3.675-.819C90.365,83.541,91.324,84.33,92.29,83.953Z" transform="translate(-23.02 -48.811)" fill="#fff" stroke="#fff" stroke-miterlimit="10" stroke-width="0.75"/>
          <path id="Path_760" data-name="Path 760" d="M81.725,75.9c.677,1.632-1.457,1.841-1.9,2.993l1.839,1.651c-.458.028-.823.134-.937.043-.768-.611-1.484-1.264-2.238-1.922A15.51,15.51,0,0,1,81.725,75.9Z" transform="translate(-21.357 -48.033)" fill="#fff" stroke="#fff" stroke-miterlimit="10" stroke-width="0.75"/>
          <path id="Path_761" data-name="Path 761" d="M73.924,112.214c1.734-1.167,2.5-1.4,3.531-.962l-2.371,1.029c.539.808,1.058,1.556,1.539,2.318.32.508.311.933-.655,1.089C75.288,114.533,74.618,113.394,73.924,112.214Z" transform="translate(-20.659 -53.4)" fill="#fff" stroke="#fff" stroke-miterlimit="10" stroke-width="0.75"/>
          <path id="Path_762" data-name="Path 762" d="M63.46,105.27c.8.836.7,1.8.831,2.814a37.639,37.639,0,0,1-4.647.824c-.069-.952.016-1.056.98-1.184.44-.058.894-.069,1.34-.107s.874-.08,1.42-.13l-.363-2.126Z" transform="translate(-18.475 -52.518)" fill="#fff" stroke="#fff" stroke-miterlimit="10" stroke-width="0.75"/>
          <path id="Path_763" data-name="Path 763" d="M57.274,88.508l-2.682-3.275c.983-.35,1.218-.324,1.693.3.513.668.94,1.375,1.477,2.172l2.493-.795c.056.2.186.4.119.463A6.527,6.527,0,0,1,57.274,88.508Z" transform="translate(-17.707 -49.423)" fill="#fff" stroke="#fff" stroke-miterlimit="10" stroke-width="0.75"/>
          <path id="Path_764" data-name="Path 764" d="M96.39,101.8l.737,2.246c.976-.084,1.9-.182,2.832-.238.657-.04,1.356-.071,1.583.818a46.171,46.171,0,0,1-4.777.267,5.912,5.912,0,0,1-.94-2.578C95.8,102.2,96.1,102.058,96.39,101.8Z" transform="translate(-24.005 -51.989)" fill="#fff" stroke="#fff" stroke-miterlimit="10" stroke-width="0.75"/>
          <path id="Path_765" data-name="Path 765" d="M56.243,96.549c.924.721,1.738,1.344,2.521,1.989.078.064-.033.271-.093.636L56.4,97.53c-.706.565-1.35,1.127-2.056,1.634-.662.474-.743.446-1.712-.155Z" transform="translate(-17.408 -51.186)" fill="#fff" stroke="#fff" stroke-miterlimit="10" stroke-width="0.75"/>
          <path id="Path_766" data-name="Path 766" d="M66.215,82.173l1.051-2.041c-.571-.255-1.1-.488-1.63-.729-.5-.226-1.009-.434-1.473-.7-.507-.289-.635-.643-.056-1.074l4.08,2.006a5.219,5.219,0,0,1-1.129,2.405C66.993,82.14,66.66,82.111,66.215,82.173Z" transform="translate(-19.102 -48.296)" fill="#fff" stroke="#fff" stroke-miterlimit="10" stroke-width="0.75"/>
          <path id="Path_767" data-name="Path 767" d="M98.629,93.284l-1.3,1.9c-.751-.629-.236-1.012.033-1.413.289-.43.589-.857.935-1.36a39.545,39.545,0,0,1,4.755,1.663,1.426,1.426,0,0,1-1.854.357Z" transform="translate(-24.174 -50.554)" fill="#fff" stroke="#fff" stroke-miterlimit="10" stroke-width="0.75"/>
          <path id="Path_768" data-name="Path 768" d="M89.6,110.466a28.5,28.5,0,0,1-.109,3.936c-1.1-.18-1.267-.635-1.183-1.2.1-.706.228-1.408.357-2.19l-2.871-.677c.323-.218.467-.4.586-.382C87.42,110.1,88.457,110.279,89.6,110.466Z" transform="translate(-22.472 -53.233)" fill="#fff" stroke="#fff" stroke-miterlimit="10" stroke-width="0.75"/>
          <path id="Path_769" data-name="Path 769" d="M101.705,98.669l.587.681a2.652,2.652,0,0,1-3,.762l-.419-1.262.666-.779a2.31,2.31,0,0,1,2.2.635l-.125.043Zm-.743-.176.056-.045-.072-.02Zm-.117.418.062.048.02-.056Zm.87.385.062.048.02-.055Z" transform="translate(-24.471 -51.406)" fill="#fff" stroke="#fff" stroke-miterlimit="10" stroke-width="0.75"/>
          <path id="Path_770" data-name="Path 770" d="M59.725,82.263c-.058-.065-.152-.128-.165-.2a1.316,1.316,0,0,1,.012-.337c1.768-.369,1.964-.315,3.083.881L61.769,83.9l-1.3-.06c-.5-.543-1.247-.937-.774-1.613l.349.061.064.1L60,82.308Zm.374.616-.056.045.072.02Z" transform="translate(-18.463 -48.892)" fill="#fff" stroke="#fff" stroke-miterlimit="10" stroke-width="0.75"/>
          <path id="Path_771" data-name="Path 771" d="M87.859,78.526c.455.854,1.252,1.588.389,2.416-1.218.339-2.138.12-2.487-.6S86,79.1,87.859,78.526Zm-.254.509.062.048.02-.055Zm-.577.11-.057.046.072.02Zm-.684.374-.056.045.071.021Z" transform="translate(-22.453 -48.433)" fill="#fff" stroke="#fff" stroke-miterlimit="10" stroke-width="0.75"/>
          <path id="Path_772" data-name="Path 772" d="M83.915,114.32l-1.176.793-1.423-.7-.552-1.217,1.108-.693,1.822.3Zm-.87-.016.119-.036-.086.072-.125.042Zm.243-.5.057-.046-.072-.02Zm-1.67.4.062.048.02-.056Z" transform="translate(-21.704 -53.623)" fill="#fff" stroke="#fff" stroke-miterlimit="10" stroke-width="0.75"/>
          <path id="Path_773" data-name="Path 773" d="M58.323,104.453c-.122.092-.3.286-.357.263-.541-.219-1.062-.474-1.611-.729l.566-1.3c1.672-.722,2.236-.488,2.685,1.375l-1.328.414-.064-.1ZM57,103.838l-.056.045.072.021Zm.5.363.062.048.02-.055Z" transform="translate(-17.976 -52.066)" fill="#fff" stroke="#fff" stroke-miterlimit="10" stroke-width="0.75"/>
          <path id="Path_774" data-name="Path 774" d="M63.383,86.366l1.894-.28.492-1.628c.786.516.786.516.171,2.044a3.336,3.336,0,0,1-2.464.243Z" transform="translate(-19.049 -49.339)" fill="#fff" stroke="#fff" stroke-miterlimit="10" stroke-width="0.75"/>
          <path id="Path_775" data-name="Path 775" d="M95.2,96.485l.6.568-1.285,1.141.97,1.437-.793.3-1-1.9Z" transform="translate(-23.679 -51.176)" fill="#fff" stroke="#fff" stroke-miterlimit="10" stroke-width="0.75"/>
          <path id="Path_776" data-name="Path 776" d="M61.481,100.544l.332-.614,2.144,1.125c.043.713.307,1.424-.344,2.121-.936-.61-.05-1.257-.447-1.871Z" transform="translate(-18.759 -51.702)" fill="#fff" stroke="#fff" stroke-miterlimit="10" stroke-width="0.75"/>
          <path id="Path_777" data-name="Path 777" d="M79.692,110.035l-.656-.472,1.945-1.269c.754.411,1.792.348,2.283.985l-.231.364-1.886-.626Z" transform="translate(-21.44 -52.98)" fill="#fff" stroke="#fff" stroke-miterlimit="10" stroke-width="0.75"/>
          <path id="Path_778" data-name="Path 778" d="M84.709,84.215,86.5,84.05l.406.7-2.645.056-1.377-1.719C83.559,82.91,83.559,82.91,84.709,84.215Z" transform="translate(-22.028 -49.117)" fill="#fff" stroke="#fff" stroke-miterlimit="10" stroke-width="0.75"/>
          <path id="Path_779" data-name="Path 779" d="M33.187,91.754l-.175.133-.123-.182-.037.029.361.059Z" transform="translate(-14.386 -50.446)" fill="#fff" stroke="#fff" stroke-miterlimit="10" stroke-width="0.75"/>
          <path id="Path_780" data-name="Path 780" d="M33.9,91.872,33.728,92l-.125-.177-.036.028.361.059Z" transform="translate(-14.495 -50.464)" fill="#fff" stroke="#fff" stroke-miterlimit="10" stroke-width="0.75"/>
          <path id="Path_781" data-name="Path 781" d="M34.617,91.989l-.174.128c-.042-.058-.083-.118-.124-.177l-.037.029.361.059Z" transform="translate(-14.604 -50.482)" fill="#fff" stroke="#fff" stroke-miterlimit="10" stroke-width="0.75"/>
          <path id="Path_782" data-name="Path 782" d="M113.637,120.763l.176.148-.214.084.039.031.047-.281Z" transform="translate(-26.719 -54.882)" fill="#fff" stroke="#fff" stroke-miterlimit="10" stroke-width="0.75"/>
          <path id="Path_783" data-name="Path 783" d="M113.546,121.321l.176.148-.214.084.038.031.047-.281Z" transform="translate(-26.706 -54.967)" fill="#fff" stroke="#fff" stroke-miterlimit="10" stroke-width="0.75"/>
          <path id="Path_784" data-name="Path 784" d="M108.806,123.359l-.283-.308-.038.029.361.059-.041-.044-.046.282Z" transform="translate(-25.938 -55.234)" fill="#fff" stroke="#fff" stroke-miterlimit="10" stroke-width="0.75"/>
          <path id="Path_785" data-name="Path 785" d="M59.377,129.022l-.174.128-.125-.177-.036.029.361.059Z" transform="translate(-18.386 -56.138)" fill="#fff" stroke="#fff" stroke-miterlimit="10" stroke-width="0.75"/>
          <path id="Path_786" data-name="Path 786" d="M117.456,82.827l.082-.007-.02.055Z" transform="translate(-27.309 -49.089)" fill="#fff" stroke="#fff" stroke-miterlimit="10" stroke-width="0.75"/>
          <path id="Path_787" data-name="Path 787" d="M118.156,82.254l.1.074-.055-.1Z" transform="translate(-27.415 -48.999)" fill="#fff" stroke="#fff" stroke-miterlimit="10" stroke-width="0.75"/>
          <path id="Path_788" data-name="Path 788" d="M118.188,82.215l-.108-.078.064.1Z" transform="translate(-27.404 -48.985)" fill="#fff" stroke="#fff" stroke-miterlimit="10" stroke-width="0.75"/>
          <path id="Path_789" data-name="Path 789" d="M118.408,83.112l-.108-.079.064.1Z" transform="translate(-27.437 -49.121)" fill="#fff" stroke="#fff" stroke-miterlimit="10" stroke-width="0.75"/>
          <path id="Path_790" data-name="Path 790" d="M118.511,81.575l-.082.007.02-.055Z" transform="translate(-27.457 -48.891)" fill="#fff" stroke="#fff" stroke-miterlimit="10" stroke-width="0.75"/>
          <path id="Path_791" data-name="Path 791" d="M118.536,81.045l-.016-.066.072.021Z" transform="translate(-27.471 -48.808)" fill="#fff" stroke="#fff" stroke-miterlimit="10" stroke-width="0.75"/>
          <path id="Path_792" data-name="Path 792" d="M117.489,80.784l.016.066-.072-.021Z" transform="translate(-27.305 -48.778)" fill="#fff" stroke="#fff" stroke-miterlimit="10" stroke-width="0.75"/>
          <path id="Path_793" data-name="Path 793" d="M116.436,80.414l-.016-.066.072.02Z" transform="translate(-27.15 -48.711)" fill="#fff" stroke="#fff" stroke-miterlimit="10" stroke-width="0.75"/>
          <path id="Path_794" data-name="Path 794" d="M115.006,80.179l-.016-.066.072.021Z" transform="translate(-26.932 -48.675)" fill="#fff" stroke="#fff" stroke-miterlimit="10" stroke-width="0.75"/>
          <path id="Path_795" data-name="Path 795" d="M118.627,80.487l-.016-.066.072.02Z" transform="translate(-27.485 -48.723)" fill="#fff" stroke="#fff" stroke-miterlimit="10" stroke-width="0.75"/>
          <path id="Path_796" data-name="Path 796" d="M117.912,80.369,117.9,80.3l.072.021Z" transform="translate(-27.376 -48.705)" fill="#fff" stroke="#fff" stroke-miterlimit="10" stroke-width="0.75"/>
          <path id="Path_797" data-name="Path 797" d="M117.223,80.167l.016.066-.072-.021Z" transform="translate(-27.264 -48.684)" fill="#fff" stroke="#fff" stroke-miterlimit="10" stroke-width="0.75"/>
          <path id="Path_798" data-name="Path 798" d="M115.724,79.962l.082-.007-.02.055Z" transform="translate(-27.044 -48.651)" fill="#fff" stroke="#fff" stroke-miterlimit="10" stroke-width="0.75"/>
          <path id="Path_799" data-name="Path 799" d="M113.648,79.58l.016.066-.072-.021Z" transform="translate(-26.718 -48.594)" fill="#fff" stroke="#fff" stroke-miterlimit="10" stroke-width="0.75"/>
          <path id="Path_800" data-name="Path 800" d="M116.554,79.771l.016.066-.072-.02Z" transform="translate(-27.162 -48.623)" fill="#fff" stroke="#fff" stroke-miterlimit="10" stroke-width="0.75"/>
          <path id="Path_801" data-name="Path 801" d="M115.055,79.566l.082-.007-.02.055Z" transform="translate(-26.942 -48.591)" fill="#fff" stroke="#fff" stroke-miterlimit="10" stroke-width="0.75"/>
          <path id="Path_802" data-name="Path 802" d="M114.45,79.475l-.082.007.02-.055Z" transform="translate(-26.837 -48.571)" fill="#fff" stroke="#fff" stroke-miterlimit="10" stroke-width="0.75"/>
          <path id="Path_803" data-name="Path 803" d="M118.914,79.752l-.091.08.125-.043Z" transform="translate(-27.517 -48.62)" fill="#fff" stroke="#fff" stroke-miterlimit="10" stroke-width="0.75"/>
          <path id="Path_804" data-name="Path 804" d="M118,79.811l-.016-.066.072.021Z" transform="translate(-27.39 -48.619)" fill="#fff" stroke="#fff" stroke-miterlimit="10" stroke-width="0.75"/>
          <path id="Path_805" data-name="Path 805" d="M117.289,79.694l-.016-.066.072.021Z" transform="translate(-27.281 -48.601)" fill="#fff" stroke="#fff" stroke-miterlimit="10" stroke-width="0.75"/>
          <path id="Path_806" data-name="Path 806" d="M115.859,79.459l-.016-.066.072.021Z" transform="translate(-27.062 -48.566)" fill="#fff" stroke="#fff" stroke-miterlimit="10" stroke-width="0.75"/>
          <path id="Path_807" data-name="Path 807" d="M116.646,79.212l.016.066-.072-.021Z" transform="translate(-27.176 -48.538)" fill="#fff" stroke="#fff" stroke-miterlimit="10" stroke-width="0.75"/>
          <path id="Path_808" data-name="Path 808" d="M115.146,79.007l.082-.007-.02.055Z" transform="translate(-26.956 -48.505)" fill="#fff" stroke="#fff" stroke-miterlimit="10" stroke-width="0.75"/>
          <path id="Path_809" data-name="Path 809" d="M115.95,78.9l-.016-.066.072.021Z" transform="translate(-27.076 -48.48)" fill="#fff" stroke="#fff" stroke-miterlimit="10" stroke-width="0.75"/>
          <path id="Path_810" data-name="Path 810" d="M33.428,87.324l.016.066-.072-.021Z" transform="translate(-14.465 -49.777)" fill="#fff" stroke="#fff" stroke-miterlimit="10" stroke-width="0.75"/>
          <path id="Path_811" data-name="Path 811" d="M34.315,87.659l.086-.072-.119.036Z" transform="translate(-14.604 -49.817)" fill="#fff" stroke="#fff" stroke-miterlimit="10" stroke-width="0.75"/>
          <path id="Path_812" data-name="Path 812" d="M34.266,87.629l-.092.079.125-.042Z" transform="translate(-14.588 -49.823)" fill="#fff" stroke="#fff" stroke-miterlimit="10" stroke-width="0.75"/>
          <path id="Path_813" data-name="Path 813" d="M32.421,87.646l.108.079-.064-.1Z" transform="translate(-14.32 -49.822)" fill="#fff" stroke="#fff" stroke-miterlimit="10" stroke-width="0.75"/>
          <path id="Path_814" data-name="Path 814" d="M33.336,87.882l.016.066-.072-.021Z" transform="translate(-14.451 -49.862)" fill="#fff" stroke="#fff" stroke-miterlimit="10" stroke-width="0.75"/>
          <path id="Path_815" data-name="Path 815" d="M32.1,88.294l.082-.007-.02.055Z" transform="translate(-14.272 -49.924)" fill="#fff" stroke="#fff" stroke-miterlimit="10" stroke-width="0.75"/>
          <path id="Path_816" data-name="Path 816" d="M32.928,88.439l-.082.007.02-.055Z" transform="translate(-14.385 -49.94)" fill="#fff" stroke="#fff" stroke-miterlimit="10" stroke-width="0.75"/>
          <path id="Path_817" data-name="Path 817" d="M32.121,88.879l-.082.007.02-.055Z" transform="translate(-14.262 -50.007)" fill="#fff" stroke="#fff" stroke-miterlimit="10" stroke-width="0.75"/>
          <path id="Path_818" data-name="Path 818" d="M31.319,88.984l.016.066-.072-.021Z" transform="translate(-14.143 -50.03)" fill="#fff" stroke="#fff" stroke-miterlimit="10" stroke-width="0.75"/>
          <path id="Path_819" data-name="Path 819" d="M32.723,89.3l-.016-.066.072.021Z" transform="translate(-14.364 -50.069)" fill="#fff" stroke="#fff" stroke-miterlimit="10" stroke-width="0.75"/>
          <path id="Path_820" data-name="Path 820" d="M31.786,89.528l.093-.064-.13.027Z" transform="translate(-14.218 -50.104)" fill="#fff" stroke="#fff" stroke-miterlimit="10" stroke-width="0.75"/>
          <path id="Path_821" data-name="Path 821" d="M31.685,89.5l-.044.278.043-.024-.357-.069.03.036.364-.186Z" transform="translate(-14.153 -50.109)" fill="#fff" stroke="#fff" stroke-miterlimit="10" stroke-width="0.75"/>
          <path id="Path_822" data-name="Path 822" d="M32.657,89.777l.016.066-.072-.02Z" transform="translate(-14.348 -50.152)" fill="#fff" stroke="#fff" stroke-miterlimit="10" stroke-width="0.75"/>
          <path id="Path_823" data-name="Path 823" d="M33.543,90.071,33.429,90l.067.091Z" transform="translate(-14.474 -50.186)" fill="#fff" stroke="#fff" stroke-miterlimit="10" stroke-width="0.75"/>
          <path id="Path_824" data-name="Path 824" d="M31.7,89.82l.108.079-.064-.1Z" transform="translate(-14.21 -50.154)" fill="#fff" stroke="#fff" stroke-miterlimit="10" stroke-width="0.75"/>
          <path id="Path_825" data-name="Path 825" d="M33.5,90.105l-.036.214.034.036.049-.272Z" transform="translate(-14.48 -50.198)" fill="#fff" stroke="#fff" stroke-miterlimit="10" stroke-width="0.75"/>
          <path id="Path_826" data-name="Path 826" d="M32.607,90.392l-.082.007.02-.055Z" transform="translate(-14.336 -50.238)" fill="#fff" stroke="#fff" stroke-miterlimit="10" stroke-width="0.75"/>
          <path id="Path_827" data-name="Path 827" d="M33.449,90.361l-.091.08.125-.043Z" transform="translate(-14.463 -50.241)" fill="#fff" stroke="#fff" stroke-miterlimit="10" stroke-width="0.75"/>
          <path id="Path_828" data-name="Path 828" d="M34.353,90.629l.016.066-.072-.021Z" transform="translate(-14.607 -50.282)" fill="#fff" stroke="#fff" stroke-miterlimit="10" stroke-width="0.75"/>
          <path id="Path_829" data-name="Path 829" d="M32.27,91.068l.091-.079-.125.042Z" transform="translate(-14.292 -50.337)" fill="#fff" stroke="#fff" stroke-miterlimit="10" stroke-width="0.75"/>
          <path id="Path_830" data-name="Path 830" d="M33.189,91.011l.016.066-.072-.02Z" transform="translate(-14.429 -50.34)" fill="#fff" stroke="#fff" stroke-miterlimit="10" stroke-width="0.75"/>
          <path id="Path_831" data-name="Path 831" d="M33.878,91.214l-.016-.066.072.021Z" transform="translate(-14.54 -50.361)" fill="#fff" stroke="#fff" stroke-miterlimit="10" stroke-width="0.75"/>
          <path id="Path_832" data-name="Path 832" d="M34.66,91.3l-.082.007.02-.055Z" transform="translate(-14.65 -50.377)" fill="#fff" stroke="#fff" stroke-miterlimit="10" stroke-width="0.75"/>
          <path id="Path_833" data-name="Path 833" d="M35.262,91.728l-.016-.066.072.02Z" transform="translate(-14.752 -50.44)" fill="#fff" stroke="#fff" stroke-miterlimit="10" stroke-width="0.75"/>
          <path id="Path_834" data-name="Path 834" d="M33.213,91.775l-.361-.059.206-.127Z" transform="translate(-14.386 -50.428)" fill="#fff" stroke="#fff" stroke-miterlimit="10" stroke-width="0.75"/>
          <path id="Path_835" data-name="Path 835" d="M33.928,91.892l-.361-.059.207-.127Z" transform="translate(-14.495 -50.446)" fill="#fff" stroke="#fff" stroke-miterlimit="10" stroke-width="0.75"/>
          <path id="Path_836" data-name="Path 836" d="M34.643,92.01l-.361-.059.207-.127Z" transform="translate(-14.604 -50.464)" fill="#fff" stroke="#fff" stroke-miterlimit="10" stroke-width="0.75"/>
          <path id="Path_837" data-name="Path 837" d="M66.778,62.747l.082-.007-.02.055Z" transform="translate(-19.568 -46.022)" fill="#fff" stroke="#fff" stroke-miterlimit="10" stroke-width="0.75"/>
          <path id="Path_838" data-name="Path 838" d="M66.938,62.159l.016.066-.072-.021Z" transform="translate(-19.584 -45.933)" fill="#fff" stroke="#fff" stroke-miterlimit="10" stroke-width="0.75"/>
          <path id="Path_839" data-name="Path 839" d="M67.676,61.748l.082-.007-.02.055Z" transform="translate(-19.705 -45.869)" fill="#fff" stroke="#fff" stroke-miterlimit="10" stroke-width="0.75"/>
          <path id="Path_840" data-name="Path 840" d="M66.961,61.63l.082-.007-.02.055Z" transform="translate(-19.596 -45.851)" fill="#fff" stroke="#fff" stroke-miterlimit="10" stroke-width="0.75"/>
          <path id="Path_841" data-name="Path 841" d="M66.292,61.234l.082-.007-.02.055Z" transform="translate(-19.494 -45.791)" fill="#fff" stroke="#fff" stroke-miterlimit="10" stroke-width="0.75"/>
          <path id="Path_842" data-name="Path 842" d="M68.195,61.219l.016.066-.072-.021Z" transform="translate(-19.776 -45.79)" fill="#fff" stroke="#fff" stroke-miterlimit="10" stroke-width="0.75"/>
          <path id="Path_843" data-name="Path 843" d="M67.282,60.974l-.09.068.13-.031Z" transform="translate(-19.631 -45.752)" fill="#fff" stroke="#fff" stroke-miterlimit="10" stroke-width="0.75"/>
          <path id="Path_844" data-name="Path 844" d="M67.307,60.733l.2.117-.211.084.04.037.014-.258Z" transform="translate(-19.647 -45.712)" fill="#fff" stroke="#fff" stroke-miterlimit="10" stroke-width="0.75"/>
          <path id="Path_845" data-name="Path 845" d="M66.427,60.73l-.016-.066.072.021Z" transform="translate(-19.512 -45.705)" fill="#fff" stroke="#fff" stroke-miterlimit="10" stroke-width="0.75"/>
          <path id="Path_846" data-name="Path 846" d="M71.3,61.055l-.086.073.119-.036Z" transform="translate(-20.245 -45.765)" fill="#fff" stroke="#fff" stroke-miterlimit="10" stroke-width="0.75"/>
          <path id="Path_847" data-name="Path 847" d="M68.327,60.717l-.082.007.02-.055Z" transform="translate(-19.792 -45.706)" fill="#fff" stroke="#fff" stroke-miterlimit="10" stroke-width="0.75"/>
          <path id="Path_848" data-name="Path 848" d="M67.368,60.409l-.059.278.044-.02.049-.221Z" transform="translate(-19.649 -45.666)" fill="#fff" stroke="#fff" stroke-miterlimit="10" stroke-width="0.75"/>
          <path id="Path_849" data-name="Path 849" d="M71.346,61.085l.091-.08-.125.042Z" transform="translate(-20.26 -45.757)" fill="#fff" stroke="#fff" stroke-miterlimit="10" stroke-width="0.75"/>
          <path id="Path_850" data-name="Path 850" d="M67.413,60.438l.091-.079-.125.042Z" transform="translate(-19.66 -45.658)" fill="#fff" stroke="#fff" stroke-miterlimit="10" stroke-width="0.75"/>
          <path id="Path_851" data-name="Path 851" d="M70.316,60.321l-.085.072.119-.036Z" transform="translate(-20.095 -45.652)" fill="#fff" stroke="#fff" stroke-miterlimit="10" stroke-width="0.75"/>
          <path id="Path_852" data-name="Path 852" d="M68.352,60.187l-.016-.066.072.021Z" transform="translate(-19.806 -45.622)" fill="#fff" stroke="#fff" stroke-miterlimit="10" stroke-width="0.75"/>
          <path id="Path_853" data-name="Path 853" d="M71.284,60.293l.016.066-.072-.021Z" transform="translate(-20.248 -45.648)" fill="#fff" stroke="#fff" stroke-miterlimit="10" stroke-width="0.75"/>
          <path id="Path_854" data-name="Path 854" d="M70.365,60.35l.091-.08-.125.043Z" transform="translate(-20.111 -45.645)" fill="#fff" stroke="#fff" stroke-miterlimit="10" stroke-width="0.75"/>
          <path id="Path_855" data-name="Path 855" d="M69.139,59.94l.016.066-.072-.021Z" transform="translate(-19.92 -45.594)" fill="#fff" stroke="#fff" stroke-miterlimit="10" stroke-width="0.75"/>
          <path id="Path_856" data-name="Path 856" d="M67.683,59.79l-.016-.066.072.021Z" transform="translate(-19.704 -45.561)" fill="#fff" stroke="#fff" stroke-miterlimit="10" stroke-width="0.75"/>
          <path id="Path_857" data-name="Path 857" d="M68.444,59.629l-.016-.066.072.021Z" transform="translate(-19.82 -45.537)" fill="#fff" stroke="#fff" stroke-miterlimit="10" stroke-width="0.75"/>
          <path id="Path_858" data-name="Path 858" d="M69.372,59.352l.091.048c.011.017-.018-.025-.047-.069Z" transform="translate(-19.964 -45.501)" fill="#fff" stroke="#fff" stroke-miterlimit="10" stroke-width="0.75"/>
          <path id="Path_859" data-name="Path 859" d="M67.6,59.028l.108.079-.064-.1Z" transform="translate(-19.694 -45.451)" fill="#fff" stroke="#fff" stroke-miterlimit="10" stroke-width="0.75"/>
          <path id="Path_860" data-name="Path 860" d="M69.429,59l-.057.3.043-.02.051-.248Z" transform="translate(-19.964 -45.45)" fill="#fff" stroke="#fff" stroke-miterlimit="10" stroke-width="0.75"/>
          <path id="Path_861" data-name="Path 861" d="M68.561,58.986l.016.066-.072-.021Z" transform="translate(-19.832 -45.448)" fill="#fff" stroke="#fff" stroke-miterlimit="10" stroke-width="0.75"/>
          <path id="Path_862" data-name="Path 862" d="M57.531,125.724l.082-.007-.02.055Z" transform="translate(-18.156 -55.641)" fill="#fff" stroke="#fff" stroke-miterlimit="10" stroke-width="0.75"/>
          <path id="Path_863" data-name="Path 863" d="M62.779,126.734l.086-.072-.119.036Z" transform="translate(-18.952 -55.785)" fill="#fff" stroke="#fff" stroke-miterlimit="10" stroke-width="0.75"/>
          <path id="Path_864" data-name="Path 864" d="M62.729,126.7l-.091.079.125-.042Z" transform="translate(-18.936 -55.792)" fill="#fff" stroke="#fff" stroke-miterlimit="10" stroke-width="0.75"/>
          <path id="Path_865" data-name="Path 865" d="M56.947,126.368l.091-.08-.125.043Z" transform="translate(-18.061 -55.728)" fill="#fff" stroke="#fff" stroke-miterlimit="10" stroke-width="0.75"/>
          <path id="Path_866" data-name="Path 866" d="M57.866,126.311l.016.066-.072-.02Z" transform="translate(-18.198 -55.732)" fill="#fff" stroke="#fff" stroke-miterlimit="10" stroke-width="0.75"/>
          <path id="Path_867" data-name="Path 867" d="M61.73,126.987l.082-.007-.02.055Z" transform="translate(-18.797 -55.834)" fill="#fff" stroke="#fff" stroke-miterlimit="10" stroke-width="0.75"/>
          <path id="Path_868" data-name="Path 868" d="M61.012,127.2,61,127.138l.072.02Z" transform="translate(-18.685 -55.858)" fill="#fff" stroke="#fff" stroke-miterlimit="10" stroke-width="0.75"/>
          <path id="Path_869" data-name="Path 869" d="M62.442,127.439l-.016-.066.072.021Z" transform="translate(-18.903 -55.894)" fill="#fff" stroke="#fff" stroke-miterlimit="10" stroke-width="0.75"/>
          <path id="Path_870" data-name="Path 870" d="M57.213,126.985l.091-.08-.125.043Z" transform="translate(-18.102 -55.823)" fill="#fff" stroke="#fff" stroke-miterlimit="10" stroke-width="0.75"/>
          <path id="Path_871" data-name="Path 871" d="M58.063,126.958l.082-.007-.02.055Z" transform="translate(-18.237 -55.83)" fill="#fff" stroke="#fff" stroke-miterlimit="10" stroke-width="0.75"/>
          <path id="Path_872" data-name="Path 872" d="M60.251,127.365l-.016-.066.072.021Z" transform="translate(-18.569 -55.883)" fill="#fff" stroke="#fff" stroke-miterlimit="10" stroke-width="0.75"/>
          <path id="Path_873" data-name="Path 873" d="M61.681,127.6l-.016-.066.072.02Z" transform="translate(-18.787 -55.919)" fill="#fff" stroke="#fff" stroke-miterlimit="10" stroke-width="0.75"/>
          <path id="Path_874" data-name="Path 874" d="M60.877,127.707l.082-.007-.02.055Z" transform="translate(-18.667 -55.944)" fill="#fff" stroke="#fff" stroke-miterlimit="10" stroke-width="0.75"/>
          <path id="Path_875" data-name="Path 875" d="M62.377,127.912l.016.066-.072-.02Z" transform="translate(-18.887 -55.976)" fill="#fff" stroke="#fff" stroke-miterlimit="10" stroke-width="0.75"/>
          <path id="Path_876" data-name="Path 876" d="M58.4,127.545l.016.066-.072-.02Z" transform="translate(-18.279 -55.92)" fill="#fff" stroke="#fff" stroke-miterlimit="10" stroke-width="0.75"/>
          <path id="Path_877" data-name="Path 877" d="M59.28,127.877l.087-.07-.126.034Z" transform="translate(-18.417 -55.96)" fill="#fff" stroke="#fff" stroke-miterlimit="10" stroke-width="0.75"/>
          <path id="Path_878" data-name="Path 878" d="M60.16,127.924l-.016-.066.072.021Z" transform="translate(-18.555 -55.968)" fill="#fff" stroke="#fff" stroke-miterlimit="10" stroke-width="0.75"/>
          <path id="Path_879" data-name="Path 879" d="M61.59,128.159l-.016-.066.072.02Z" transform="translate(-18.773 -56.004)" fill="#fff" stroke="#fff" stroke-miterlimit="10" stroke-width="0.75"/>
          <path id="Path_880" data-name="Path 880" d="M59.223,128.093l.047-.209-.039-.036-.053.269Z" transform="translate(-18.407 -55.966)" fill="#fff" stroke="#fff" stroke-miterlimit="10" stroke-width="0.75"/>
          <path id="Path_881" data-name="Path 881" d="M60.829,128.32l-.016-.066.072.021Z" transform="translate(-18.657 -56.029)" fill="#fff" stroke="#fff" stroke-miterlimit="10" stroke-width="0.75"/>
          <path id="Path_882" data-name="Path 882" d="M59.179,128.161l.108.078-.064-.1Z" transform="translate(-18.407 -56.011)" fill="#fff" stroke="#fff" stroke-miterlimit="10" stroke-width="0.75"/>
          <path id="Path_883" data-name="Path 883" d="M60.135,128.454l-.082.007.02-.055Z" transform="translate(-18.541 -56.052)" fill="#fff" stroke="#fff" stroke-miterlimit="10" stroke-width="0.75"/>
          <path id="Path_884" data-name="Path 884" d="M58.592,128.526l-.016-.066.072.02Z" transform="translate(-18.315 -56.06)" fill="#fff" stroke="#fff" stroke-miterlimit="10" stroke-width="0.75"/>
          <path id="Path_885" data-name="Path 885" d="M59.4,129.043l-.361-.059.206-.127Z" transform="translate(-18.386 -56.121)" fill="#fff" stroke="#fff" stroke-miterlimit="10" stroke-width="0.75"/>
          <path id="Path_886" data-name="Path 886" d="M111.778,118.711l-.091.079.125-.042Z" transform="translate(-26.427 -54.571)" fill="#fff" stroke="#fff" stroke-miterlimit="10" stroke-width="0.75"/>
          <path id="Path_887" data-name="Path 887" d="M111.492,119.446l-.016-.066.072.02Z" transform="translate(-26.395 -54.673)" fill="#fff" stroke="#fff" stroke-miterlimit="10" stroke-width="0.75"/>
          <path id="Path_888" data-name="Path 888" d="M112,119.913l.087-.07-.125.034Z" transform="translate(-26.469 -54.744)" fill="#fff" stroke="#fff" stroke-miterlimit="10" stroke-width="0.75"/>
          <path id="Path_889" data-name="Path 889" d="M111.939,120.129l.047-.209-.038-.036-.053.269Z" transform="translate(-26.459 -54.75)" fill="#fff" stroke="#fff" stroke-miterlimit="10" stroke-width="0.75"/>
          <path id="Path_890" data-name="Path 890" d="M112.9,120.211l-.082.007.02-.055Z" transform="translate(-26.6 -54.793)" fill="#fff" stroke="#fff" stroke-miterlimit="10" stroke-width="0.75"/>
          <path id="Path_891" data-name="Path 891" d="M111.9,120.2l.108.078-.064-.1Z" transform="translate(-26.459 -54.794)" fill="#fff" stroke="#fff" stroke-miterlimit="10" stroke-width="0.75"/>
          <path id="Path_892" data-name="Path 892" d="M112.738,120.8l-.016-.066.072.02Z" transform="translate(-26.586 -54.88)" fill="#fff" stroke="#fff" stroke-miterlimit="10" stroke-width="0.75"/>
          <path id="Path_893" data-name="Path 893" d="M113.66,120.745l-.047.281-.178-.174Z" transform="translate(-26.694 -54.882)" fill="#fff" stroke="#fff" stroke-miterlimit="10" stroke-width="0.75"/>
          <path id="Path_894" data-name="Path 894" d="M111.819,121.033l.086-.073-.119.036Z" transform="translate(-26.442 -54.915)" fill="#fff" stroke="#fff" stroke-miterlimit="10" stroke-width="0.75"/>
          <path id="Path_895" data-name="Path 895" d="M111.769,121l-.091.08.125-.042Z" transform="translate(-26.426 -54.921)" fill="#fff" stroke="#fff" stroke-miterlimit="10" stroke-width="0.75"/>
          <path id="Path_896" data-name="Path 896" d="M112.673,121.271l.016.066-.072-.021Z" transform="translate(-26.569 -54.962)" fill="#fff" stroke="#fff" stroke-miterlimit="10" stroke-width="0.75"/>
          <path id="Path_897" data-name="Path 897" d="M113.568,121.3l-.047.281-.177-.174Z" transform="translate(-26.68 -54.967)" fill="#fff" stroke="#fff" stroke-miterlimit="10" stroke-width="0.75"/>
          <path id="Path_898" data-name="Path 898" d="M111.84,121.8l-.016-.066.072.02Z" transform="translate(-26.448 -55.032)" fill="#fff" stroke="#fff" stroke-miterlimit="10" stroke-width="0.75"/>
          <path id="Path_899" data-name="Path 899" d="M112.726,122.011l-.1-.074.055.1Z" transform="translate(-26.571 -55.064)" fill="#fff" stroke="#fff" stroke-miterlimit="10" stroke-width="0.75"/>
          <path id="Path_900" data-name="Path 900" d="M112.693,122.048l.108.078-.064-.1Z" transform="translate(-26.581 -55.077)" fill="#fff" stroke="#fff" stroke-miterlimit="10" stroke-width="0.75"/>
          <path id="Path_901" data-name="Path 901" d="M112.106,122.413l-.016-.066.072.021Z" transform="translate(-26.489 -55.126)" fill="#fff" stroke="#fff" stroke-miterlimit="10" stroke-width="0.75"/>
          <path id="Path_902" data-name="Path 902" d="M112.616,122.883l.086-.072-.119.036Z" transform="translate(-26.564 -55.197)" fill="#fff" stroke="#fff" stroke-miterlimit="10" stroke-width="0.75"/>
          <path id="Path_903" data-name="Path 903" d="M112.566,122.853l-.091.08.125-.043Z" transform="translate(-26.548 -55.204)" fill="#fff" stroke="#fff" stroke-miterlimit="10" stroke-width="0.75"/>
          <path id="Path_904" data-name="Path 904" d="M109.823,122.9l-.016-.066.072.021Z" transform="translate(-26.14 -55.2)" fill="#fff" stroke="#fff" stroke-miterlimit="10" stroke-width="0.75"/>
          <path id="Path_905" data-name="Path 905" d="M110.737,123.148l.086-.072-.119.036Z" transform="translate(-26.277 -55.238)" fill="#fff" stroke="#fff" stroke-miterlimit="10" stroke-width="0.75"/>
          <path id="Path_906" data-name="Path 906" d="M111.61,123.192l-.016-.066.072.021Z" transform="translate(-26.413 -55.245)" fill="#fff" stroke="#fff" stroke-miterlimit="10" stroke-width="0.75"/>
          <path id="Path_907" data-name="Path 907" d="M108.846,123.121l-.361-.059.207-.127Z" transform="translate(-25.938 -55.216)" fill="#fff" stroke="#fff" stroke-miterlimit="10" stroke-width="0.75"/>
          <path id="Path_908" data-name="Path 908" d="M110.687,123.118l-.091.079.125-.042Z" transform="translate(-26.261 -55.244)" fill="#fff" stroke="#fff" stroke-miterlimit="10" stroke-width="0.75"/>
          <path id="Path_909" data-name="Path 909" d="M108.809,123.385l.046-.282.178.174Z" transform="translate(-25.988 -55.242)" fill="#fff" stroke="#fff" stroke-miterlimit="10" stroke-width="0.75"/>
          <path id="Path_910" data-name="Path 910" d="M109.924,123.569l-.108-.079.064.1Z" transform="translate(-26.142 -55.301)" fill="#fff" stroke="#fff" stroke-miterlimit="10" stroke-width="0.75"/>
          <path id="Path_911" data-name="Path 911" d="M101.335,98.571l-.016-.066.072.021Z" transform="translate(-24.844 -51.485)" fill="#fff" stroke="#fff" stroke-miterlimit="10" stroke-width="0.75"/>
          <path id="Path_912" data-name="Path 912" d="M102.2,98.791l-.091.08.125-.043Z" transform="translate(-24.964 -51.528)" fill="#fff" stroke="#fff" stroke-miterlimit="10" stroke-width="0.75"/>
          <path id="Path_913" data-name="Path 913" d="M101.2,99.075l.082-.007-.02.055Z" transform="translate(-24.826 -51.571)" fill="#fff" stroke="#fff" stroke-miterlimit="10" stroke-width="0.75"/>
          <path id="Path_914" data-name="Path 914" d="M102.227,99.53l.082-.007-.02.055Z" transform="translate(-24.982 -51.64)" fill="#fff" stroke="#fff" stroke-miterlimit="10" stroke-width="0.75"/>
          <path id="Path_915" data-name="Path 915" d="M59.752,82.388l.274.046.044-.024-.349-.061Z" transform="translate(-18.49 -49.017)" fill="#fff" stroke="#fff" stroke-miterlimit="10" stroke-width="0.75"/>
          <path id="Path_916" data-name="Path 916" d="M60.081,82.445l.108.078-.064-.1Z" transform="translate(-18.545 -49.028)" fill="#fff" stroke="#fff" stroke-miterlimit="10" stroke-width="0.75"/>
          <path id="Path_917" data-name="Path 917" d="M60.189,83.122l.016.066-.072-.02Z" transform="translate(-18.553 -49.135)" fill="#fff" stroke="#fff" stroke-miterlimit="10" stroke-width="0.75"/>
          <path id="Path_918" data-name="Path 918" d="M87.954,79.126l.082-.007-.02.055Z" transform="translate(-22.802 -48.524)" fill="#fff" stroke="#fff" stroke-miterlimit="10" stroke-width="0.75"/>
          <path id="Path_919" data-name="Path 919" d="M87.262,79.257l.016.066-.072-.021Z" transform="translate(-22.688 -48.545)" fill="#fff" stroke="#fff" stroke-miterlimit="10" stroke-width="0.75"/>
          <path id="Path_920" data-name="Path 920" d="M86.456,79.7l.016.066-.072-.021Z" transform="translate(-22.565 -48.612)" fill="#fff" stroke="#fff" stroke-miterlimit="10" stroke-width="0.75"/>
          <path id="Path_921" data-name="Path 921" d="M83.741,114.026l-.016-.066.072.021Z" transform="translate(-22.156 -53.845)" fill="#fff" stroke="#fff" stroke-miterlimit="10" stroke-width="0.75"/>
          <path id="Path_922" data-name="Path 922" d="M83.49,114.658l.086-.072-.119.036Z" transform="translate(-22.115 -53.941)" fill="#fff" stroke="#fff" stroke-miterlimit="10" stroke-width="0.75"/>
          <path id="Path_923" data-name="Path 923" d="M81.772,114.515l.082-.007-.02.055Z" transform="translate(-21.858 -53.929)" fill="#fff" stroke="#fff" stroke-miterlimit="10" stroke-width="0.75"/>
          <path id="Path_924" data-name="Path 924" d="M83.44,114.628l-.091.079.125-.042Z" transform="translate(-22.099 -53.947)" fill="#fff" stroke="#fff" stroke-miterlimit="10" stroke-width="0.75"/>
          <path id="Path_925" data-name="Path 925" d="M57.107,104.114l.016.066-.072-.02Z" transform="translate(-18.082 -52.341)" fill="#fff" stroke="#fff" stroke-miterlimit="10" stroke-width="0.75"/>
          <path id="Path_926" data-name="Path 926" d="M57.707,104.541l.082-.007-.02.055Z" transform="translate(-18.182 -52.405)" fill="#fff" stroke="#fff" stroke-miterlimit="10" stroke-width="0.75"/>
          <path id="Path_927" data-name="Path 927" d="M58.659,104.826l-.108-.079.064.1Z" transform="translate(-18.311 -52.438)" fill="#fff" stroke="#fff" stroke-miterlimit="10" stroke-width="0.75"/>
        </g>
      </g>
    </g>
    <path id="Path_928" data-name="Path 928" d="M76.5,87.194c-13.012-6.9-23.723-15.251-22.014-22.708,8.368,1.223,11.573,8.967,17.487,12.284,3.736-2.881,5.264-7.872,6.848-12.048,2.143-5.652,4.532-11.253,6.862-16.855L100.181,13a12.936,12.936,0,0,1,2.476-4.289c1.174-1.187,6.391-1.06,7.93-.472C105.255,24.154,99.9,40.127,92.377,55.2,91.294,57.367,77.084,87.49,76.5,87.194Z" transform="translate(-6.606)" fill="#070760" stroke="#070760" stroke-miterlimit="10" stroke-width="2"/>
    <path id="Path_929" data-name="Path 929" d="M72.517,69.993c-3.168-1.344-6.249-2.741-3.911-6.648.554-.928,3.6-1.51,4.538-.86C76.909,65.1,74.419,67.561,72.517,69.993Z" transform="translate(-8.665 -8.31)" fill="#070760" stroke="#070760" stroke-miterlimit="10" stroke-width="3"/>
  </g>
</svg>
